<svg width="215" height="193" viewBox="0 0 215 193" fill="none" xmlns="http://www.w3.org/2000/svg">
<path d="M211.104 52.2979C213.744 62.1511 214.983 72.0547 214.953 81.787C214.933 86.2199 210.006 88.5976 206.319 86.1393L178.593 67.6318C175.903 65.8385 175.228 62.2216 176.638 59.32C178.411 55.6729 179.681 51.7639 180.376 47.7239C180.92 44.5402 183.58 41.9913 186.814 42.1021L204.163 42.6663C206.55 42.7469 208.666 44.2581 209.402 46.535C210.016 48.4291 210.59 50.3534 211.104 52.2979Z" fill="#051F2D"/>
<path d="M195.651 0H184.962C182.634 0 180.771 1.93438 180.851 4.26168L181.556 23.2427C181.637 25.4491 183.45 27.2021 185.667 27.2021H200.578C203.268 27.2021 205.232 24.6632 204.557 22.0639L199.641 3.0829C199.167 1.26943 197.535 0 195.661 0H195.651Z" fill="#051F2D"/>
</svg>
