<svg width="215" height="193" viewBox="0 0 215 193" fill="none" xmlns="http://www.w3.org/2000/svg">
<path d="M43.6984 37.3151C42.3081 32.6001 35.6285 32.6102 34.2583 37.3353L28.0925 58.5832C27.629 60.1952 26.3697 61.4545 24.7577 61.928L3.52998 68.1845C-1.18506 69.5748 -1.17496 76.2545 3.55015 77.6246L24.798 83.7905C26.41 84.2539 27.6693 85.5133 28.1429 87.1252L34.3994 108.353C35.7897 113.068 42.4693 113.058 43.8395 108.333L50.0053 87.0849C50.4688 85.4729 51.7281 84.2136 53.3401 83.7401L74.5678 77.4836C79.2828 76.0933 79.2728 69.4136 74.5476 68.0434L53.2998 61.8776C51.6878 61.4142 50.4285 60.1548 49.9549 58.5429L43.6984 37.3151Z" fill="#051F2D"/>
<path d="M121.456 80.2511C124.438 81.4903 126.322 84.6538 125.506 87.7669L98.9592 188.727C98.2539 191.397 95.7855 193.22 93.0452 192.979C65.6516 190.571 40.1623 178.108 21.4532 158.392C19.3073 156.125 19.4987 152.568 21.7656 150.422L102.435 74.0853C104.782 71.8688 108.46 71.9998 110.968 74.0248C114.152 76.5838 117.688 78.6794 121.456 80.241V80.2511Z" fill="#051F2D"/>
<path d="M202.024 126.475C203.314 128.208 203.556 130.525 202.568 132.449C192.625 151.823 177.099 168.265 157.463 179.196C153.917 181.171 149.665 178.713 149.323 174.663L142.069 89.1977C141.797 85.9838 144.195 83.193 147.348 82.4878C147.922 82.3568 148.507 82.2158 149.081 82.0647C152.527 81.1378 155.761 79.828 158.753 78.1758C161.584 76.6142 165.231 77.1078 167.165 79.6971L202.024 126.475Z" fill="#051F2D"/>
<path d="M211.104 52.2979C213.744 62.1511 214.983 72.0547 214.953 81.787C214.933 86.2199 210.006 88.5976 206.319 86.1393L178.593 67.6318C175.903 65.8385 175.228 62.2216 176.638 59.32C178.411 55.6729 179.681 51.7639 180.376 47.7239C180.92 44.5402 183.58 41.9913 186.814 42.1021L204.163 42.6663C206.55 42.7469 208.666 44.2581 209.402 46.535C210.016 48.4291 210.59 50.3534 211.104 52.2979Z" fill="#051F2D"/>
<path d="M195.651 0H184.962C182.634 0 180.771 1.93438 180.851 4.26168L181.556 23.2427C181.637 25.4491 183.45 27.2021 185.667 27.2021H200.578C203.268 27.2021 205.232 24.6632 204.557 22.0639L199.641 3.0829C199.167 1.26943 197.535 0 195.661 0H195.651Z" fill="#051F2D"/>
</svg>
