<svg width="40" height="40" viewBox="0 0 40 40" fill="none" xmlns="http://www.w3.org/2000/svg">
<rect width="40" height="40" rx="20" fill="#051F2D"/>
<path d="M25.8748 9.09961H14.128C11.352 9.09961 9.10156 11.35 9.10156 14.126V25.8729C9.10156 28.6489 11.352 30.8993 14.128 30.8993H25.8748C28.6509 30.8993 30.9013 28.6489 30.9013 25.8729V14.126C30.9013 11.35 28.6509 9.09961 25.8748 9.09961Z" fill="white"/>
<path d="M23.5163 13.4009C24.3439 13.4042 25.1366 13.7344 25.7218 14.3196C26.3069 14.9048 26.6372 15.6975 26.6405 16.5251V23.4748C26.6372 24.3023 26.3069 25.0951 25.7218 25.6802C25.1366 26.2654 24.3439 26.5957 23.5163 26.599H16.485C15.6575 26.5957 14.8647 26.2654 14.2796 25.6802C13.6944 25.0951 13.3642 24.3023 13.3608 23.4748V16.5251C13.3642 15.6975 13.6944 14.9048 14.2796 14.3196C14.8647 13.7344 15.6575 13.4042 16.485 13.4009H23.5163ZM23.5163 11.9477H16.485C13.9674 11.9477 11.9072 14.0102 11.9072 16.5255V23.4748C11.9072 25.9924 13.9697 28.0526 16.485 28.0526H23.5163C26.0339 28.0526 28.0941 25.9901 28.0941 23.4748V16.5251C28.0941 14.0074 26.0339 11.9473 23.5163 11.9473V11.9477Z" fill="#051F2D"/>
<path d="M20.0007 17.2871C20.5373 17.2871 21.0617 17.4462 21.5078 17.7443C21.9539 18.0423 22.3016 18.466 22.5069 18.9617C22.7122 19.4574 22.7659 20.0028 22.6613 20.529C22.5566 21.0552 22.2983 21.5385 21.9189 21.9179C21.5395 22.2973 21.0562 22.5556 20.53 22.6603C20.0038 22.765 19.4583 22.7112 18.9627 22.5059C18.467 22.3006 18.0433 21.9529 17.7453 21.5068C17.4472 21.0607 17.2881 20.5363 17.2881 19.9998C17.289 19.2806 17.575 18.5911 18.0836 18.0826C18.5921 17.5741 19.2816 17.288 20.0007 17.2871ZM20.0007 15.834C19.1768 15.834 18.3714 16.0783 17.6864 16.536C17.0013 16.9938 16.4674 17.6444 16.1521 18.4056C15.8368 19.1668 15.7543 20.0044 15.915 20.8125C16.0757 21.6206 16.4725 22.3628 17.0551 22.9454C17.6377 23.528 18.38 23.9248 19.188 24.0855C19.9961 24.2462 20.8337 24.1637 21.5949 23.8484C22.3561 23.5331 23.0067 22.9992 23.4645 22.3141C23.9222 21.6291 24.1665 20.8237 24.1665 19.9998C24.1665 18.8949 23.7276 17.8353 22.9464 17.0541C22.1652 16.2729 21.1056 15.834 20.0007 15.834Z" fill="#051F2D"/>
<path d="M24.2552 16.6394C24.8007 16.6394 25.2429 16.1972 25.2429 15.6517C25.2429 15.1063 24.8007 14.6641 24.2552 14.6641C23.7098 14.6641 23.2676 15.1063 23.2676 15.6517C23.2676 16.1972 23.7098 16.6394 24.2552 16.6394Z" fill="#051F2D"/>
</svg>
