<svg width="40" height="40" viewBox="0 0 40 40" fill="none" xmlns="http://www.w3.org/2000/svg">
<path d="M18.5061 7.1299C17.8837 7.26544 17.31 7.50939 16.7265 7.89792L16.3375 8.15091L15.7541 7.96117C14.3635 7.51843 12.7978 7.68107 12.0879 8.34066C11.7768 8.62979 11.7184 8.73821 11.7184 9.07253C11.7184 9.29841 11.8157 9.66887 11.9518 9.93993C12.2046 10.4459 13.0701 11.6657 13.8481 12.6235C14.2954 13.1656 14.3343 13.2469 14.1982 13.3644C13.9259 13.6264 14.0717 14.1143 14.4607 14.2318C14.6747 14.3041 13.9064 15.1172 12.5839 16.2376C9.32618 18.9844 7.85778 21.1077 7.17707 24.0623C6.92423 25.1737 6.94368 27.1976 7.22569 28.1373C7.90641 30.4685 9.74434 32.1039 12.3991 32.7454C13.2063 32.9442 13.391 32.9532 19.4494 32.9894C26.2274 33.0255 26.9373 32.9894 28.289 32.5647C29.4462 32.2123 30.1172 31.8147 31.041 30.9654C32.3052 29.7908 32.8595 28.5349 32.9859 26.5832C33.1026 24.6225 32.4899 22.3456 31.3425 20.5204C30.6131 19.3458 29.7574 18.4061 27.7638 16.5629C25.2841 14.2679 25.0896 14.0149 26.2954 14.5299C26.8789 14.7829 27.1512 14.9817 28.6682 16.1744C29.242 16.6352 29.7476 17.0147 29.7865 17.0147C29.8254 17.0147 29.9616 16.9514 30.0783 16.8701C30.2436 16.7617 30.2922 16.6533 30.2728 16.4454C30.2533 16.2196 30.0491 16.0027 29.2322 15.3251C27.9292 14.2498 27.0442 13.6896 26.2565 13.4547L25.6342 13.265L26.0037 12.8132C26.9081 11.7109 28.0653 10.0122 28.2014 9.58755C28.3765 9.04542 28.3181 8.74725 27.9681 8.4039C27.4527 7.87985 27.0442 7.75335 25.8676 7.76239C25.0118 7.76239 24.6714 7.80756 24.1755 7.9702L23.5531 8.16898L23.3003 7.95213C22.9405 7.63589 22.1334 7.27447 21.4235 7.12087C20.665 6.95823 19.2452 6.95823 18.5061 7.1299ZM21.7346 8.24127C22.0458 8.34969 22.5223 8.62979 22.8335 8.89182C23.4462 9.3978 23.3878 9.38877 24.3505 9.01831C25.498 8.57558 27.0831 8.63882 27.1609 9.12674C27.2095 9.42491 26.84 9.99414 25.5369 11.6838L24.3894 13.1746L23.4073 13.2017C22.8627 13.2108 22.4154 13.1927 22.4154 13.1475C22.4154 13.1114 22.5418 12.6867 22.7071 12.2259C22.8627 11.7561 22.9988 11.2591 22.9988 11.1236C22.9988 10.6899 22.5029 10.4369 22.2014 10.726C22.1236 10.7983 21.9 11.3314 21.6957 11.9187C21.5013 12.515 21.3165 13.0481 21.297 13.1023C21.2679 13.1927 20.9178 13.2198 20.0037 13.2198H18.759L18.3213 11.9819C17.9421 10.8706 17.8643 10.726 17.6309 10.6537C17.417 10.5814 17.3197 10.5995 17.1641 10.735C16.9113 10.9519 16.921 11.1145 17.2614 12.1355C17.417 12.6054 17.5531 13.0481 17.5531 13.1023C17.5531 13.1927 17.3003 13.2198 16.5904 13.2198H15.6374L14.908 12.2891C13.2841 10.211 12.7881 9.48816 12.7881 9.17192C12.7881 9.03638 12.9048 8.94603 13.2257 8.82857C13.887 8.60268 14.9664 8.69304 15.7541 9.05446C16.0847 9.20806 16.4251 9.33455 16.5029 9.33455C16.5807 9.33455 16.7946 9.18999 16.9794 9.00928C17.4072 8.59365 17.9615 8.28644 18.6228 8.11477C19.391 7.91599 21.0248 7.97924 21.7346 8.24127ZM24.5937 14.801C24.827 15.2437 25.2744 15.7045 26.9956 17.2857C28.1528 18.3519 29.3587 19.5536 29.6796 19.9512C31.1285 21.8035 31.9454 24.0443 31.9454 26.1766C31.9356 29.077 30.2144 31.1732 27.3068 31.8057C26.6163 31.9503 26.0037 31.9683 20.0815 31.9683C14.2857 31.9683 13.5369 31.9503 12.8367 31.8147C10.5515 31.3449 8.83996 29.8902 8.26621 27.9024C7.73137 26.0772 8.13979 23.5021 9.29701 21.4511C10.0263 20.15 10.7751 19.2464 12.156 18.0086C14.6844 15.7316 15.1706 15.2528 15.4526 14.7558L15.7346 14.2589H20.0231H24.3116L24.5937 14.801Z" fill="white" stroke="white" stroke-width="0.6"/>
<path d="M16.8605 19.2735C14.9643 19.5807 13.7584 21.5143 14.2835 23.4027C14.5364 24.3424 14.8865 24.8574 15.8395 25.7338C17.0161 26.8181 19.7487 28.9414 19.9821 28.9414C20.2155 28.9414 23.551 26.3392 24.4067 25.4899C25.4862 24.4146 25.8946 23.4569 25.7876 22.1919C25.6612 20.6559 24.611 19.5445 23.0453 19.2825C22.0729 19.1199 21.0323 19.3729 20.2933 19.9511L19.9918 20.1861L19.6223 19.915C18.8735 19.3548 17.833 19.1199 16.8605 19.2735ZM18.2122 20.3126C18.5818 20.421 18.8541 20.5836 19.2236 20.936C19.5056 21.198 19.8168 21.442 19.914 21.4691C20.0404 21.5143 20.2447 21.3878 20.6628 20.9993C21.3046 20.4119 21.7131 20.2312 22.4618 20.2312C23.1231 20.2312 23.5899 20.3939 24.008 20.7734C24.5234 21.2342 24.679 21.5775 24.7277 22.3455C24.7763 23.2039 24.5526 23.8002 23.9011 24.5592C23.444 25.0833 20.0988 27.7849 19.9627 27.7487C19.7779 27.6855 17.3273 25.7429 16.6271 25.1013C15.7033 24.261 15.3241 23.6286 15.2463 22.8154C15.1198 21.5504 15.7422 20.5836 16.8605 20.3035C17.4635 20.1499 17.619 20.1499 18.2122 20.3126Z" fill="white" stroke="white" stroke-width="0.4"/>
</svg>
