<svg width="467" height="313" viewBox="0 0 467 313" fill="none" xmlns="http://www.w3.org/2000/svg">
<g clip-path="url(#clip0_3544_1360)">
<path d="M235.217 164.123C239.039 164.123 242.137 161.024 242.137 157.202C242.137 153.381 239.039 150.282 235.217 150.282C231.395 150.282 228.297 153.381 228.297 157.202C228.297 161.024 231.395 164.123 235.217 164.123Z" fill="#020202"/>
<path d="M237.63 150.715C227.976 145.579 222.805 151.276 222.805 151.276L232.801 163.685L237.63 150.712V150.715Z" fill="#020202"/>
<path d="M270.913 206.22C258.989 201.559 253.1 188.115 257.761 176.191C262.422 164.267 275.867 158.378 287.79 163.039C299.714 167.7 305.603 181.144 300.942 193.068C300.032 195.399 298.783 197.501 297.277 199.335C291.081 206.891 280.506 209.967 270.913 206.22Z" fill="#020202"/>
<path d="M303.995 192.551C301.629 194.913 298.784 197.501 297.278 199.335C291.082 206.891 280.507 209.967 270.914 206.22" fill="#020202"/>
<path d="M303.995 192.551C301.629 194.913 298.784 197.501 297.278 199.335C291.082 206.891 280.507 209.967 270.914 206.22" stroke="#020202" stroke-width="0.606727" stroke-miterlimit="10"/>
<path d="M256.539 159.551C246.024 156.189 239.386 151.678 239.386 151.678L228.922 160.351C228.922 160.351 231.135 168.866 241.97 181.561C244.486 178.181 255.832 164.18 256.539 159.555V159.551Z" fill="#020202"/>
<path d="M275.732 183.214C279.508 170.948 271.61 162.667 271.61 162.667C265.903 161.947 260.685 160.765 256.538 159.552C256.152 161.804 243.836 181.801 243.133 182.75C248.254 188.535 256.492 196.619 264.886 202.747C264.886 202.747 271.96 195.481 275.736 183.214H275.732Z" fill="#020202"/>
<path d="M276.504 161.621L288.41 158.117" stroke="#020202" stroke-width="0.606727" stroke-miterlimit="10"/>
<path d="M227.7 162.899L218.356 155.904C217.518 155.276 217.218 154.259 217.685 153.631C219.338 151.425 222.653 150.276 227.368 148.859L232.8 163.684C232.8 163.684 232.258 163.841 231.112 164.081C229.923 164.327 228.999 163.87 227.696 162.899H227.7Z" fill="#020202"/>
<path d="M252.346 186.305C259.915 186.305 266.05 180.169 266.05 172.6C266.05 165.031 259.915 158.896 252.346 158.896C244.777 158.896 238.641 165.031 238.641 172.6C238.641 180.169 244.777 186.305 252.346 186.305Z" fill="#020202"/>
<path d="M428.242 277.974H389.672V270.64H417.1C421.618 270.64 425.961 272.378 429.234 275.494C430.173 276.39 429.541 277.974 428.242 277.974Z" fill="#020202"/>
<path d="M389.525 277.975C391.549 277.975 393.19 276.334 393.19 274.309C393.19 272.285 391.549 270.644 389.525 270.644C387.5 270.644 385.859 272.285 385.859 274.309C385.859 276.334 387.5 277.975 389.525 277.975Z" fill="#020202"/>
<path d="M282.049 279.43C288.818 279.43 294.305 273.943 294.305 267.174C294.305 260.405 288.818 254.918 282.049 254.918C275.28 254.918 269.793 260.405 269.793 267.174C269.793 273.943 275.28 279.43 282.049 279.43Z" fill="#020202"/>
<path d="M288.163 279.412L268.498 279.469C266.731 279.473 265.297 278.409 265.293 277.089C265.279 272.446 268.409 270.768 269.794 268.73L294.291 267.67C294.291 267.67 294.113 272.713 293.799 275.765C293.588 277.799 290.897 279.409 288.16 279.416L288.163 279.412Z" fill="#020202"/>
<path d="M274.141 279.455C273.98 277.067 273.498 274.648 272.428 272.499C271.75 271.132 270.793 269.954 269.904 268.727H269.797C268.413 270.768 265.283 272.449 265.297 277.092C265.3 278.413 266.735 279.476 268.502 279.473L274.144 279.459L274.141 279.455Z" fill="#020202"/>
<path d="M297.543 50.573C297.543 50.573 310.927 33.2705 323.793 36.3684C334.785 39.013 328.5 65.3914 328.5 65.3914L297.543 50.573Z" fill="#020202"/>
<path d="M311.623 78.3646C321.268 78.3646 329.086 70.5461 329.086 60.9015C329.086 51.257 321.268 43.4385 311.623 43.4385C301.979 43.4385 294.16 51.257 294.16 60.9015C294.16 70.5461 301.979 78.3646 311.623 78.3646Z" fill="#020202"/>
<path d="M303.523 199.96C342.129 199.96 373.425 168.664 373.425 130.058C373.425 91.452 342.129 60.1558 303.523 60.1558C264.917 60.1558 233.621 91.452 233.621 130.058C233.621 168.664 264.917 199.96 303.523 199.96Z" fill="#C7A77B" stroke="#C7A77B" stroke-width="0.606727" stroke-miterlimit="10"/>
<path d="M237.087 151.774L363.825 94.6278C363.825 94.6278 337.101 46.4964 290.211 48.7056C251.334 50.5365 231.998 60.3834 223.593 65.9438C215.302 71.4258 202.896 85.9337 214.702 107.915C226.508 129.896 237.087 151.774 237.087 151.774Z" fill="#C7A77B" stroke="#C7A77B" stroke-width="0.606727" stroke-miterlimit="10"/>
<path d="M234.606 146.706C236.955 146.292 245.745 142.784 252.012 139.968C262.366 135.318 274.358 129.518 279.933 126.228C286.139 122.562 289.904 119.511 291.857 113.608C293.313 109.2 292.324 103.125 287.749 98.9605C278.733 90.7518 262.909 92.1473 260.553 91.7761C254.864 90.8803 251.638 86.3298 248.501 81.9507C246.73 79.4845 244.75 77.1183 242.048 75.6372C239.378 74.1774 236.38 73.7063 233.457 73.0104C229.185 71.9897 225.131 70.0624 221.876 67.168C213.746 73.4066 203.688 87.4041 214.702 107.911C221.787 121.106 230.427 138.294 234.606 146.703V146.706Z" fill="white"/>
<path d="M221.876 67.1724C213.746 73.4109 203.688 87.4085 214.702 107.916C221.787 121.11 230.427 138.299 234.606 146.707" stroke="#020202" stroke-width="0.606727" stroke-miterlimit="10"/>
<path d="M266.053 86.3123C271.838 86.3123 276.528 81.6224 276.528 75.8373C276.528 70.0521 271.838 65.3623 266.053 65.3623C260.268 65.3623 255.578 70.0521 255.578 75.8373C255.578 81.6224 260.268 86.3123 266.053 86.3123Z" fill="#020202"/>
<path d="M269.499 74.0242C270.989 74.0242 272.197 72.8162 272.197 71.3261C272.197 69.8359 270.989 68.6279 269.499 68.6279C268.009 68.6279 266.801 69.8359 266.801 71.3261C266.801 72.8162 268.009 74.0242 269.499 74.0242Z" fill="white"/>
<path d="M224.046 71.3648C223.5 71.4326 222.932 71.2292 222.558 70.7759L220.049 67.7423C219.467 67.0356 219.57 65.9971 220.281 65.4153C220.991 64.8336 222.04 64.9371 222.622 65.6402L225.131 68.6738C225.712 69.3805 225.609 70.419 224.899 71.0008C224.645 71.2078 224.349 71.3291 224.046 71.3648Z" fill="#020202"/>
<path d="M324.402 67.6219C324.402 67.6219 332.861 61.9972 341.205 59.4668C350.099 56.7686 359 57.2326 362.159 61.6545C364.803 65.3592 363.076 77.6829 353.176 88.4719C345.863 96.4379 339.517 98.4044 339.517 98.4044" fill="#C7A77B"/>
<path d="M324.402 67.6219C324.402 67.6219 332.861 61.9972 341.205 59.4668C350.099 56.7686 359 57.2326 362.159 61.6545C364.803 65.3592 363.076 77.6829 353.176 88.4719C345.863 96.4379 339.517 98.4044 339.517 98.4044" stroke="#020202" stroke-width="0.606727" stroke-miterlimit="10"/>
<path d="M331.742 82.161C338.712 76.7682 345.89 72.0679 345.89 72.0679" stroke="#020202" stroke-width="0.606727" stroke-miterlimit="10"/>
<path d="M188.58 84.8912C192.473 84.8912 195.629 80.1839 195.629 74.377C195.629 68.5702 192.473 63.8628 188.58 63.8628C184.687 63.8628 181.531 68.5702 181.531 74.377C181.531 80.1839 184.687 84.8912 188.58 84.8912Z" fill="#020202"/>
<path d="M188.583 84.8882L147.715 88.3501V60.4014L188.583 63.8633V84.8882Z" fill="#020202"/>
<path d="M172.499 92.2193C179.218 92.2193 184.665 84.0972 184.665 74.0782C184.665 64.0591 179.218 55.937 172.499 55.937C165.779 55.937 160.332 64.0591 160.332 74.0782C160.332 84.0972 165.779 92.2193 172.499 92.2193Z" fill="#051F2D"/>
<path d="M172.5 92.2197L101.98 98.1977V49.9629L172.5 55.9374V92.2197Z" fill="#051F2D"/>
<path d="M135.105 97.6298C143.827 97.6298 150.898 87.0854 150.898 74.0781C150.898 61.0708 143.827 50.5264 135.105 50.5264C126.383 50.5264 119.312 61.0708 119.312 74.0781C119.312 87.0854 126.383 97.6298 135.105 97.6298Z" fill="#051F2D"/>
<path d="M135.105 50.5303C143.828 50.5303 150.898 61.0731 150.898 74.082C150.898 87.091 143.828 97.6337 135.105 97.6337" stroke="#020202" stroke-width="0.606727" stroke-linecap="round" stroke-linejoin="round"/>
<path d="M135.103 97.6294L43.5586 105.385V42.7705L135.103 50.5295V97.6294Z" fill="#051F2D"/>
<path d="M43.5618 105.385C55.0493 105.385 64.3618 91.3681 64.3618 74.0776C64.3618 56.7872 55.0493 42.7705 43.5618 42.7705C32.0742 42.7705 22.7617 56.7872 22.7617 74.0776C22.7617 91.3681 32.0742 105.385 43.5618 105.385Z" fill="#B3966E"/>
<path d="M75.5156 45.561C85.9799 45.561 94.4598 58.3273 94.4598 74.0772C94.4598 89.8272 85.9763 102.593 75.5156 102.593" stroke="#020202" stroke-width="0.606727" stroke-linecap="round" stroke-linejoin="round"/>
<path d="M43.5612 100.506C52.6776 100.506 60.0678 88.6737 60.0678 74.0777C60.0678 59.4818 52.6776 47.6494 43.5612 47.6494C34.4449 47.6494 27.0547 59.4818 27.0547 74.0777C27.0547 88.6737 34.4449 100.506 43.5612 100.506Z" fill="#020202"/>
<path d="M46.2386 71.897C49.7984 71.897 52.6841 69.0112 52.6841 65.4514C52.6841 61.8916 49.7984 59.0059 46.2386 59.0059C42.6788 59.0059 39.793 61.8916 39.793 65.4514C39.793 69.0112 42.6788 71.897 46.2386 71.897Z" fill="white"/>
<path d="M239.15 84.8912C243.043 84.8912 246.199 80.1839 246.199 74.377C246.199 68.5702 243.043 63.8628 239.15 63.8628C235.257 63.8628 232.102 68.5702 232.102 74.377C232.102 80.1839 235.257 84.8912 239.15 84.8912Z" fill="#020202"/>
<path d="M239.15 84.8882L198.281 88.3501V60.4014L239.15 63.8633V84.8882Z" fill="#020202"/>
<path d="M223.069 92.2193C229.788 92.2193 235.236 84.0972 235.236 74.0782C235.236 64.0591 229.788 55.937 223.069 55.937C216.35 55.937 210.902 64.0591 210.902 74.0782C210.902 84.0972 216.35 92.2193 223.069 92.2193Z" fill="#051F2D"/>
<path d="M223.07 92.2197L152.551 98.1977V49.9629L223.07 55.9374V92.2197Z" fill="#051F2D"/>
<path d="M185.672 97.6298C194.394 97.6298 201.464 87.0854 201.464 74.0781C201.464 61.0708 194.394 50.5264 185.672 50.5264C176.95 50.5264 169.879 61.0708 169.879 74.0781C169.879 87.0854 176.95 97.6298 185.672 97.6298Z" fill="#051F2D"/>
<path d="M185.672 50.5303C194.394 50.5303 201.465 61.0731 201.465 74.082C201.465 87.091 194.394 97.6337 185.672 97.6337" stroke="#020202" stroke-width="0.606727" stroke-linecap="round" stroke-linejoin="round"/>
<path d="M185.673 97.6294L94.1289 105.385V42.7705L185.673 50.5295V97.6294Z" fill="#051F2D"/>
<path d="M94.1282 105.385C105.616 105.385 114.928 91.3681 114.928 74.0776C114.928 56.7872 105.616 42.7705 94.1282 42.7705C82.6406 42.7705 73.3281 56.7872 73.3281 74.0776C73.3281 91.3681 82.6406 105.385 94.1282 105.385Z" fill="#B3966E"/>
<path d="M126.086 45.561C136.55 45.561 145.03 58.3273 145.03 74.0772C145.03 89.8272 136.547 102.593 126.086 102.593" stroke="#020202" stroke-width="0.606727" stroke-linecap="round" stroke-linejoin="round"/>
<path d="M94.1276 100.506C103.244 100.506 110.634 88.6737 110.634 74.0777C110.634 59.4818 103.244 47.6494 94.1276 47.6494C85.0113 47.6494 77.6211 59.4818 77.6211 74.0777C77.6211 88.6737 85.0113 100.506 94.1276 100.506Z" fill="#020202"/>
<path d="M97.4104 70.1944C100.97 70.1944 103.856 67.3086 103.856 63.7488C103.856 60.189 100.97 57.3032 97.4104 57.3032C93.8506 57.3032 90.9648 60.189 90.9648 63.7488C90.9648 67.3086 93.8506 70.1944 97.4104 70.1944Z" fill="white"/>
<path d="M252.957 215.685C252.957 237.87 252.789 266.572 291.852 275.526C330.914 284.481 407.241 287.889 431.87 254.916C456.5 221.942 443.041 189.678 425.56 161.326C402.358 123.695 363.82 94.6289 363.82 94.6289L237.082 151.775C237.082 151.775 252.957 193.501 252.957 215.689V215.685Z" fill="#C7A77B" stroke="#C7A77B" stroke-width="0.606727" stroke-miterlimit="10"/>
<path d="M310.805 265.832C309.374 263.077 308.171 260.2 307.118 257.281C305.991 254.151 304.941 250.96 304.324 247.688C303.068 241.017 303.392 234.229 303.592 227.484C303.796 220.692 303.785 213.804 301.676 207.269C299.62 200.909 295.644 195.113 291.707 189.774C287.867 184.567 283.684 179.627 279.805 174.448C277.906 171.914 276.015 169.377 274.141 166.822C272.249 164.238 270.215 161.854 267.827 159.712C259.833 152.546 248.262 152.399 238.801 156.496C242.912 168.042 252.952 198.043 252.952 215.685C252.952 237.869 252.784 266.571 291.847 275.526C300.469 277.503 310.366 278.645 320.816 278.873C316.794 275.069 313.375 270.793 310.798 265.832H310.805Z" fill="white" stroke="white" stroke-width="0.606727" stroke-miterlimit="10"/>
<path d="M241.926 166.564C245.884 179.748 252.961 204.624 252.961 215.684C252.961 237.869 252.793 266.57 291.856 275.525C291.856 275.525 294.586 276.171 297.877 276.678" stroke="#020202" stroke-width="0.606727" stroke-miterlimit="10"/>
<path d="M310.912 280.964C317.681 280.964 323.168 275.477 323.168 268.709C323.168 261.94 317.681 256.453 310.912 256.453C304.143 256.453 298.656 261.94 298.656 268.709C298.656 275.477 304.143 280.964 310.912 280.964Z" fill="#C7A77B"/>
<path d="M298.656 268.741C298.638 261.97 304.11 256.467 310.88 256.449H320.823" stroke="#020202" stroke-width="0.606727" stroke-miterlimit="10"/>
<path d="M317.03 280.947L297.365 281.004C295.598 281.008 294.164 279.944 294.16 278.624C294.146 273.98 297.276 272.303 298.661 270.265L323.158 269.205C323.158 269.205 322.98 274.248 322.666 277.3C322.455 279.334 319.764 280.943 317.027 280.951L317.03 280.947Z" fill="#C7A77B"/>
<path d="M250.142 162.795C246.859 163.416 243.047 163.952 240.77 164.623C231.398 167.378 220.923 163.97 215.105 155.468" stroke="#020202" stroke-width="0.606727" stroke-miterlimit="10"/>
<path d="M215.105 155.468C207.874 144.904 210.576 130.478 221.14 123.247C231.704 116.017 246.13 118.718 253.361 129.282C260.591 139.847 257.89 154.272 247.326 161.503C245.259 162.917 243.046 163.952 240.769 164.623C231.397 167.378 220.922 163.969 215.105 155.468Z" fill="#C7A77B"/>
<path d="M232.041 139.168C242.066 131.156 240.199 119.864 240.199 119.864C235.888 116.056 232.241 112.141 229.496 108.807C227.911 110.452 206.469 120.046 205.355 120.431C206.333 128.097 208.589 139.415 212.076 149.204C212.076 149.204 222.012 147.181 232.037 139.168H232.041Z" fill="#C7A77B"/>
<path d="M240.314 120.086L311.858 132.171L305.884 177.087L229.461 165.049L240.314 120.086Z" fill="#C7A77B" stroke="#C7A77B" stroke-width="0.606727" stroke-miterlimit="10"/>
<path d="M308.844 177.371C321.719 177.371 332.157 166.934 332.157 154.059C332.157 141.183 321.719 130.746 308.844 130.746C295.969 130.746 285.531 141.183 285.531 154.059C285.531 166.934 295.969 177.371 308.844 177.371Z" fill="#C7A77B" stroke="#C7A77B" stroke-width="0.606727" stroke-miterlimit="10"/>
<path d="M229.499 108.808C222.704 100.11 219.756 92.644 219.756 92.644L206.226 93.9182C206.226 93.9182 203.26 102.202 205.069 118.794C209.049 117.416 226.308 112.231 229.496 108.808H229.499Z" fill="#C7A77B"/>
<path d="M218.685 130.936C226.254 130.936 232.39 124.8 232.39 117.231C232.39 109.662 226.254 103.526 218.685 103.526C211.116 103.526 204.98 109.662 204.98 117.231C204.98 124.8 211.116 130.936 218.685 130.936Z" fill="#C7A77B"/>
<path d="M213.194 101.78C217.016 101.78 220.114 98.6821 220.114 94.8602C220.114 91.0382 217.016 87.9399 213.194 87.9399C209.372 87.9399 206.273 91.0382 206.273 94.8602C206.273 98.6821 209.372 101.78 213.194 101.78Z" fill="#C7A77B"/>
<path d="M218.843 90.8552C213.758 81.1761 206.273 82.9748 206.273 82.9748L207.548 98.8604L218.84 90.8587L218.843 90.8552Z" fill="#C7A77B"/>
<path d="M203.78 95.3378L199.994 84.2954C199.655 83.3032 199.979 82.2932 200.718 82.0398C203.324 81.1476 208.834 82.4574 212.16 83.8707L207.553 98.8604C207.553 98.8604 207.018 98.6856 205.936 98.2359C204.815 97.7719 204.309 96.8725 203.78 95.3378Z" fill="#C7A77B"/>
<path d="M203.781 83.9167C203.781 83.9167 202.803 83.5705 201.714 83.7597C200.865 83.906 200.344 84.2486 200.344 84.2486" fill="#B3966E"/>
<path d="M203.781 83.9167C203.781 83.9167 202.803 83.5705 201.714 83.7597C200.865 83.906 200.344 84.2486 200.344 84.2486" stroke="#020202" stroke-width="0.606727" stroke-miterlimit="10"/>
<path d="M203.958 86.9942C203.958 86.9942 203.266 86.8122 202.398 87.0763C201.531 87.3404 201.281 87.6152 201.281 87.6152" fill="#B3966E"/>
<path d="M203.958 86.9942C203.958 86.9942 203.266 86.8122 202.398 87.0763C201.531 87.3404 201.281 87.6152 201.281 87.6152" stroke="#020202" stroke-width="0.606727" stroke-miterlimit="10"/>
<path d="M193.758 280.718H445.489" stroke="#020202" stroke-width="0.606727" stroke-miterlimit="10" stroke-linecap="round"/>
<path d="M232.355 260.378L223.486 242.583L214.613 260.378L199.734 259.468L213.603 280.418H233.365L247.234 259.468L232.355 260.378Z" fill="#028B34"/>
<path d="M16.9375 278.624L53.4175 228.8V270.944H62.2495L59.3695 278.624H53.4175V291.2L44.7775 296V278.624H16.9375ZM27.4015 270.944H44.7775V247.232L27.4015 270.944ZM77.3305 231.872C80.3385 229.824 83.4745 228.8 86.7385 228.8C91.9225 228.8 96.5305 231.296 100.563 236.288C105.747 242.624 108.339 251.136 108.339 261.824C108.339 264.576 108.147 267.424 107.763 270.368C107.379 273.312 106.707 276.16 105.747 278.912C104.787 281.664 103.507 284.256 101.907 286.688C100.307 289.056 98.2905 291.072 95.8585 292.736C92.7225 294.912 89.3945 296 85.8745 296C79.6665 296 74.4185 292.416 70.1305 285.248C66.4185 278.976 64.5625 271.584 64.5625 263.072C64.5625 260.256 64.7545 257.376 65.1385 254.432C65.5865 251.424 66.2905 248.544 67.2505 245.792C68.2745 242.976 69.5865 240.352 71.1865 237.92C72.8505 235.488 74.8985 233.472 77.3305 231.872ZM74.8345 264.224C74.8345 265.312 74.8665 266.784 74.9305 268.64C74.9945 270.432 75.1545 272.384 75.4105 274.496C75.6665 276.608 76.0505 278.752 76.5625 280.928C77.0745 283.04 77.7465 284.96 78.5785 286.688C79.4745 288.416 80.5625 289.824 81.8425 290.912C83.1225 292 84.6905 292.544 86.5465 292.544C87.8905 292.544 89.1065 292.256 90.1945 291.68C91.2825 291.04 92.2105 290.24 92.9785 289.28C93.8105 288.32 94.5145 287.264 95.0905 286.112C95.6665 284.896 96.1145 283.68 96.4345 282.464C97.1385 279.968 97.5865 276.992 97.7785 273.536C97.9705 270.016 98.0665 265.76 98.0665 260.768C98.0665 259.552 98.0345 258.016 97.9705 256.16C97.9065 254.304 97.7465 252.32 97.4905 250.208C97.2985 248.096 96.9785 245.984 96.5305 243.872C96.0825 241.76 95.4105 239.872 94.5145 238.208C93.6825 236.48 92.6265 235.104 91.3465 234.08C90.0665 232.992 88.4985 232.448 86.6425 232.448C84.6585 232.448 82.9945 233.056 81.6505 234.272C80.3065 235.424 79.1865 236.96 78.2905 238.88C77.4585 240.8 76.7865 242.944 76.2745 245.312C75.8265 247.68 75.4745 250.048 75.2185 252.416C75.0265 254.72 74.8985 256.928 74.8345 259.04C74.8345 261.152 74.8345 262.88 74.8345 264.224ZM112.375 278.624L148.855 228.8V270.944H157.687L154.807 278.624H148.855V291.2L140.215 296V278.624H112.375ZM122.839 270.944H140.215V247.232L122.839 270.944Z" fill="#051F2D"/>
<path d="M43.2104 171.4C45.4824 171.4 47.5304 171.88 49.3544 172.84C51.1784 173.768 52.7304 175.016 54.0104 176.584C55.2904 178.12 56.2824 179.896 56.9864 181.912C57.6904 183.896 58.0424 185.96 58.0424 188.104C58.0424 190.248 57.6904 192.344 56.9864 194.392C56.2824 196.408 55.2744 198.2 53.9624 199.768C52.6504 201.336 51.0664 202.6 49.2104 203.56C47.3544 204.52 45.2584 205 42.9224 205C40.6184 205 38.5544 204.536 36.7304 203.608C34.9064 202.68 33.3704 201.448 32.1224 199.912C30.8744 198.344 29.9144 196.552 29.2424 194.536C28.5704 192.52 28.2344 190.44 28.2344 188.296C28.2344 186.056 28.5864 183.912 29.2904 181.864C30.0264 179.816 31.0504 178.024 32.3624 176.488C33.6744 174.92 35.2424 173.688 37.0664 172.792C38.9224 171.864 40.9704 171.4 43.2104 171.4ZM43.2104 202.888C45.1304 202.888 46.6824 202.44 47.8664 201.544C49.0824 200.648 50.0264 199.496 50.6984 198.088C51.3704 196.648 51.8184 195.064 52.0424 193.336C52.2664 191.576 52.3784 189.832 52.3784 188.104C52.3784 186.6 52.2824 185 52.0904 183.304C51.8984 181.576 51.4664 179.992 50.7944 178.552C50.1544 177.112 49.2264 175.928 48.0104 175C46.8264 174.04 45.2264 173.56 43.2104 173.56C41.1944 173.56 39.5784 174.04 38.3624 175C37.1464 175.928 36.2024 177.112 35.5304 178.552C34.8904 179.992 34.4584 181.576 34.2344 183.304C34.0104 185.032 33.8984 186.664 33.8984 188.2C33.8984 189.768 34.0104 191.416 34.2344 193.144C34.4584 194.872 34.8904 196.456 35.5304 197.896C36.2024 199.336 37.1464 200.536 38.3624 201.496C39.5784 202.424 41.1944 202.888 43.2104 202.888ZM76.1166 171.4C78.3886 171.4 80.4366 171.88 82.2606 172.84C84.0846 173.768 85.6366 175.016 86.9166 176.584C88.1966 178.12 89.1886 179.896 89.8926 181.912C90.5966 183.896 90.9486 185.96 90.9486 188.104C90.9486 190.248 90.5966 192.344 89.8926 194.392C89.1886 196.408 88.1806 198.2 86.8686 199.768C85.5566 201.336 83.9726 202.6 82.1166 203.56C80.2606 204.52 78.1646 205 75.8286 205C73.5246 205 71.4606 204.536 69.6366 203.608C67.8126 202.68 66.2766 201.448 65.0286 199.912C63.7806 198.344 62.8206 196.552 62.1486 194.536C61.4766 192.52 61.1406 190.44 61.1406 188.296C61.1406 186.056 61.4926 183.912 62.1966 181.864C62.9326 179.816 63.9566 178.024 65.2686 176.488C66.5806 174.92 68.1486 173.688 69.9726 172.792C71.8286 171.864 73.8766 171.4 76.1166 171.4ZM76.1166 202.888C78.0366 202.888 79.5886 202.44 80.7726 201.544C81.9886 200.648 82.9326 199.496 83.6046 198.088C84.2766 196.648 84.7246 195.064 84.9486 193.336C85.1726 191.576 85.2846 189.832 85.2846 188.104C85.2846 186.6 85.1886 185 84.9966 183.304C84.8046 181.576 84.3726 179.992 83.7006 178.552C83.0606 177.112 82.1326 175.928 80.9166 175C79.7326 174.04 78.1326 173.56 76.1166 173.56C74.1006 173.56 72.4846 174.04 71.2686 175C70.0526 175.928 69.1086 177.112 68.4366 178.552C67.7966 179.992 67.3646 181.576 67.1406 183.304C66.9166 185.032 66.8046 186.664 66.8046 188.2C66.8046 189.768 66.9166 191.416 67.1406 193.144C67.3646 194.872 67.7966 196.456 68.4366 197.896C69.1086 199.336 70.0526 200.536 71.2686 201.496C72.4846 202.424 74.1006 202.888 76.1166 202.888ZM91.4054 205C92.1734 204.616 92.7654 204.232 93.1814 203.848C93.5974 203.432 93.9174 202.984 94.1414 202.504C94.3654 202.024 94.4934 201.512 94.5254 200.968C94.5894 200.392 94.6214 199.752 94.6214 199.048V177.352C94.6214 176.296 94.5894 175.448 94.5254 174.808C94.4614 174.168 94.3174 173.64 94.0934 173.224C93.9014 172.808 93.5814 172.472 93.1334 172.216C92.7174 171.96 92.1414 171.688 91.4054 171.4H102.445C104.237 171.4 105.901 171.528 107.437 171.784C109.005 172.04 110.365 172.52 111.517 173.224C112.669 173.928 113.581 174.904 114.253 176.152C114.925 177.4 115.261 179.016 115.261 181C115.261 182.664 114.973 184.072 114.397 185.224C113.821 186.376 113.053 187.32 112.093 188.056C111.133 188.76 110.045 189.272 108.829 189.592C107.613 189.912 106.349 190.072 105.037 190.072C103.181 190.072 101.389 189.8 99.6614 189.256V199.048C99.7254 199.912 99.7894 200.664 99.8534 201.304C99.9174 201.912 100.045 202.44 100.237 202.888C100.429 203.336 100.717 203.736 101.101 204.088C101.517 204.408 102.077 204.712 102.781 205H91.4054ZM99.6614 187.72C100.973 187.912 102.189 188.008 103.309 188.008C104.269 188.008 105.149 187.912 105.949 187.72C106.781 187.496 107.501 187.128 108.109 186.616C108.717 186.072 109.181 185.352 109.501 184.456C109.853 183.528 110.045 182.36 110.077 180.952C110.109 179.448 109.853 178.168 109.309 177.112C108.765 176.056 108.013 175.208 107.053 174.568C106.093 173.928 104.973 173.512 103.693 173.32C102.445 173.096 101.101 173.08 99.6614 173.272V187.72ZM126.723 171.448C127.235 171.48 127.859 171.544 128.595 171.64C129.363 171.736 130.163 171.912 130.995 172.168C131.539 172.328 132.019 172.472 132.435 172.6C132.851 172.696 133.235 172.792 133.587 172.888C133.971 172.952 134.339 173 134.691 173.032C135.075 173.032 135.507 173 135.987 172.936V182.104C134.931 179.288 133.587 177.08 131.955 175.48C130.323 173.848 128.499 173.032 126.483 173.032C125.555 173.032 124.723 173.208 123.987 173.56C123.251 173.912 122.643 174.376 122.163 174.952C121.683 175.528 121.315 176.184 121.059 176.92C120.835 177.624 120.755 178.344 120.819 179.08C120.883 179.848 121.091 180.52 121.443 181.096C121.795 181.672 122.227 182.2 122.739 182.68C123.251 183.128 123.811 183.544 124.419 183.928C125.059 184.312 125.683 184.68 126.291 185.032L131.235 188.008C132.355 188.68 133.347 189.336 134.211 189.976C135.107 190.584 135.859 191.224 136.467 191.896C137.075 192.568 137.539 193.304 137.859 194.104C138.179 194.904 138.339 195.816 138.339 196.84C138.339 198.248 138.035 199.464 137.427 200.488C136.851 201.512 136.083 202.36 135.123 203.032C134.163 203.704 133.059 204.2 131.811 204.52C130.595 204.84 129.331 205 128.019 205C127.059 205 126.019 204.92 124.899 204.76C123.811 204.6 122.739 204.36 121.683 204.04C121.139 203.88 120.691 203.768 120.339 203.704C120.019 203.64 119.763 203.608 119.571 203.608C119.251 203.608 118.915 203.656 118.563 203.752C118.211 203.848 117.667 204.104 116.931 204.52V194.776C118.051 197.336 119.491 199.384 121.251 200.92C123.011 202.456 125.251 203.224 127.971 203.224C128.803 203.224 129.539 203.08 130.179 202.792C130.851 202.504 131.427 202.136 131.907 201.688C132.387 201.24 132.755 200.728 133.011 200.152C133.267 199.544 133.395 198.952 133.395 198.376C133.395 197.736 133.235 197.112 132.915 196.504C132.627 195.864 132.211 195.272 131.667 194.728C131.123 194.184 130.307 193.576 129.219 192.904C128.131 192.2 126.787 191.464 125.187 190.696C124.099 190.152 123.043 189.608 122.019 189.064C121.027 188.488 120.147 187.832 119.379 187.096C118.643 186.36 118.035 185.496 117.555 184.504C117.107 183.512 116.883 182.312 116.883 180.904C116.851 179.464 117.059 178.152 117.507 176.968C117.955 175.784 118.595 174.776 119.427 173.944C120.291 173.08 121.331 172.44 122.547 172.024C123.795 171.576 125.187 171.384 126.723 171.448ZM144.207 171.4C145.071 171.4 145.759 171.544 146.271 171.832C146.815 172.088 147.055 172.632 146.991 173.464C146.863 174.712 146.719 176.168 146.559 177.832C146.399 179.464 146.223 181.144 146.031 182.872C145.871 184.6 145.695 186.296 145.503 187.96C145.311 189.624 145.119 191.128 144.927 192.472C144.767 193.784 144.607 194.872 144.447 195.736C144.287 196.568 144.143 197.016 144.015 197.08C143.919 197.016 143.791 196.568 143.631 195.736C143.471 194.872 143.295 193.784 143.103 192.472C142.943 191.128 142.767 189.624 142.575 187.96C142.383 186.296 142.191 184.6 141.999 182.872C141.839 181.144 141.679 179.464 141.519 177.832C141.391 176.168 141.263 174.712 141.135 173.464C141.071 172.664 141.311 172.12 141.855 171.832C142.431 171.544 143.215 171.4 144.207 171.4ZM142.143 200.536C142.623 200.024 143.231 199.768 143.967 199.768C144.735 199.768 145.359 200.024 145.839 200.536C146.351 201.016 146.607 201.624 146.607 202.36C146.607 203.096 146.351 203.72 145.839 204.232C145.327 204.744 144.703 205 143.967 205C143.231 205 142.607 204.744 142.095 204.232C141.583 203.72 141.327 203.096 141.327 202.36C141.327 201.624 141.599 201.016 142.143 200.536Z" fill="#051F2D"/>
</g>
<defs>
<clipPath id="clip0_3544_1360">
<rect width="466.466" height="313" fill="white"/>
</clipPath>
</defs>
</svg>
