<svg width="456" height="406" viewBox="0 0 456 406" fill="none" xmlns="http://www.w3.org/2000/svg">
<path d="M356.589 35.269H101.134C97.2781 35.269 94.1523 38.3948 94.1523 42.2507V257.612C94.1523 261.468 97.2781 264.594 101.134 264.594H356.589C360.444 264.594 363.57 261.468 363.57 257.612V42.2507C363.57 38.3948 360.444 35.269 356.589 35.269Z" fill="white" stroke="#051F2D" stroke-width="0.683292" stroke-linecap="round" stroke-linejoin="round"/>
<path d="M331.622 83.2363H126.691C124.786 83.2363 123.242 84.7803 123.242 86.6849V95.2623C123.242 97.1669 124.786 98.7109 126.691 98.7109H331.622C333.527 98.7109 335.071 97.1669 335.071 95.2623V86.6849C335.071 84.7803 333.527 83.2363 331.622 83.2363Z" fill="#C7A77B" stroke="#C7A77B" stroke-width="0.683292" stroke-linecap="round" stroke-linejoin="round"/>
<path d="M331.622 111.343H126.691C124.786 111.343 123.242 112.887 123.242 114.792V123.369C123.242 125.274 124.786 126.818 126.691 126.818H331.622C333.527 126.818 335.071 125.274 335.071 123.369V114.792C335.071 112.887 333.527 111.343 331.622 111.343Z" fill="#C7A77B" stroke="#C7A77B" stroke-width="0.683292" stroke-linecap="round" stroke-linejoin="round"/>
<path d="M331.622 139.455H126.691C124.786 139.455 123.242 140.999 123.242 142.904V151.481C123.242 153.386 124.786 154.93 126.691 154.93H331.622C333.527 154.93 335.071 153.386 335.071 151.481V142.904C335.071 140.999 333.527 139.455 331.622 139.455Z" fill="#C7A77B" stroke="#C7A77B" stroke-width="0.683292" stroke-linecap="round" stroke-linejoin="round"/>
<path d="M331.622 167.562H126.691C124.786 167.562 123.242 169.106 123.242 171.011V179.588C123.242 181.493 124.786 183.037 126.691 183.037H331.622C333.527 183.037 335.071 181.493 335.071 179.588V171.011C335.071 169.106 333.527 167.562 331.622 167.562Z" fill="#C7A77B" stroke="#C7A77B" stroke-width="0.683292" stroke-linecap="round" stroke-linejoin="round"/>
<path d="M331.622 195.674H126.691C124.786 195.674 123.242 197.218 123.242 199.123V207.7C123.242 209.605 124.786 211.149 126.691 211.149H331.622C333.527 211.149 335.071 209.605 335.071 207.7V199.123C335.071 197.218 333.527 195.674 331.622 195.674Z" fill="#C7A77B" stroke="#C7A77B" stroke-width="0.683292" stroke-linecap="round" stroke-linejoin="round"/>
<path d="M331.622 223.781H126.691C124.786 223.781 123.242 225.325 123.242 227.23V235.807C123.242 237.712 124.786 239.256 126.691 239.256H331.622C333.527 239.256 335.071 237.712 335.071 235.807V227.23C335.071 225.325 333.527 223.781 331.622 223.781Z" fill="#C7A77B" stroke="#C7A77B" stroke-width="0.683292" stroke-linecap="round" stroke-linejoin="round"/>
<path d="M131.795 73.6378C136.286 73.6378 139.926 69.9974 139.926 65.5067C139.926 61.0159 136.286 57.3755 131.795 57.3755C127.305 57.3755 123.664 61.0159 123.664 65.5067C123.664 69.9974 127.305 73.6378 131.795 73.6378Z" fill="#9BA5AB"/>
<path d="M363.578 99.7236L329.008 68.678L363.578 52.9663V99.7236Z" fill="#051F2D"/>
<path d="M355.212 78.831C376.705 78.831 394.128 61.4079 394.128 39.9155C394.128 18.4231 376.705 1 355.212 1C333.72 1 316.297 18.4231 316.297 39.9155C316.297 61.4079 333.72 78.831 355.212 78.831Z" fill="#1D3542" stroke="#EEE4D7" stroke-width="0.683292" stroke-linecap="round" stroke-linejoin="round"/>
<path d="M360.488 32.3389H349.957V66.0332H360.488V32.3389Z" fill="white"/>
<path d="M355.219 26.2783C358.664 26.2783 361.457 23.4855 361.457 20.0403C361.457 16.5951 358.664 13.8022 355.219 13.8022C351.773 13.8022 348.98 16.5951 348.98 20.0403C348.98 23.4855 351.773 26.2783 355.219 26.2783Z" fill="white"/>
<path d="M307.468 383.756L293.385 303.967C293.162 302.701 291.954 301.856 290.689 302.079L278.11 304.3C276.844 304.523 275.999 305.73 276.222 306.996L290.306 386.785C290.529 388.051 291.736 388.896 293.002 388.672L305.581 386.452C306.847 386.228 307.692 385.021 307.468 383.756Z" fill="#B3966E" stroke="#C7A77B" stroke-width="0.683292" stroke-linecap="round" stroke-linejoin="round"/>
<path d="M278.904 360.359L255.603 324.41C254.514 322.726 254.992 320.479 256.677 319.39L265.206 313.859C266.89 312.77 269.137 313.248 270.226 314.932L274.567 321.629L293.53 350.886C294.619 352.57 294.141 354.817 292.457 355.906L283.928 361.436C282.244 362.526 279.997 362.047 278.908 360.363L278.904 360.359Z" fill="#B3966E" stroke="#C7A77B" stroke-width="0.683292" stroke-linecap="round" stroke-linejoin="round"/>
<path d="M279.055 328.546L293.532 350.882" stroke="#051F2D" stroke-width="0.683292" stroke-linecap="round" stroke-linejoin="round"/>
<path d="M286.114 388.23L294.39 336.77L298.566 310.805C298.883 308.823 300.748 307.477 302.726 307.798L312.762 309.414C314.744 309.732 316.09 311.597 315.769 313.574L303.317 390.995C302.999 392.977 301.134 394.323 299.157 394.002L289.12 392.386C287.139 392.068 285.792 390.203 286.114 388.226V388.23Z" fill="#B3966E" stroke="#C7A77B" stroke-width="0.683292" stroke-linecap="round" stroke-linejoin="round"/>
<path d="M286.117 388.229L294.393 336.769L297.263 318.936" fill="white"/>
<path d="M286.117 388.229L294.393 336.769L297.263 318.936" stroke="#051F2D" stroke-width="0.683292" stroke-linecap="round" stroke-linejoin="round"/>
<path d="M318.219 392.917L352.959 319.721C353.51 318.56 353.016 317.172 351.855 316.621L340.315 311.144C339.154 310.593 337.766 311.087 337.215 312.248L302.474 385.445C301.923 386.606 302.417 387.994 303.579 388.545L315.118 394.022C316.279 394.573 317.668 394.079 318.219 392.917Z" fill="#B3966E" stroke="#C7A77B" stroke-width="0.683292" stroke-linecap="round" stroke-linejoin="round"/>
<path d="M343.525 372.662L362.744 332.167C363.295 331.006 362.801 329.618 361.64 329.067L350.1 323.59C348.939 323.039 347.551 323.534 347 324.695L327.78 365.189C327.229 366.35 327.724 367.738 328.885 368.289L340.425 373.766C341.586 374.317 342.974 373.823 343.525 372.662Z" fill="#B3966E" stroke="#C7A77B" stroke-width="0.683292" stroke-linecap="round" stroke-linejoin="round"/>
<path d="M328.336 363.997L346.439 325.857C347.299 324.044 349.466 323.272 351.274 324.132" stroke="#051F2D" stroke-width="0.683292" stroke-linecap="round" stroke-linejoin="round"/>
<path d="M327.717 346.786H249.898V405.42H327.717V346.786Z" fill="#152B36"/>
<path d="M363.877 346.786H327.719V405.42H363.877V346.786Z" fill="#051F2D"/>
<path d="M327.719 346.786H363.877L375.951 331.802H339.793L327.719 346.786Z" fill="#051F2D"/>
<path d="M286.068 346.778H249.91L237.832 331.793H273.99L286.068 346.778Z" fill="#051F2D"/>
<path d="M237.832 361.766H315.647L327.725 346.786H249.906L237.832 361.766Z" fill="#E6E8EA"/>
<path d="M249.898 361.766H315.647L327.717 346.786" stroke="#051F2D" stroke-width="0.683292" stroke-linecap="round" stroke-linejoin="round"/>
<path d="M363.876 346.786H327.766" stroke="white" stroke-width="0.683292" stroke-linecap="round" stroke-linejoin="round"/>
<path d="M406.351 151.208C410.24 151.208 413.392 148.055 413.392 144.166C413.392 140.277 410.24 137.124 406.351 137.124C402.461 137.124 399.309 140.277 399.309 144.166C399.309 148.055 402.461 151.208 406.351 151.208Z" fill="#051F2D"/>
<path d="M405.971 138.217H394.094V153.285H405.971V138.217Z" fill="#FF7C51"/>
<path d="M400.798 141.565C400.798 141.565 398.085 147.847 394.086 149.929V138.217H400.71L400.798 141.565Z" fill="#051F2D"/>
<path d="M400.027 159.226C403.307 159.226 405.967 156.567 405.967 153.286C405.967 150.005 403.307 147.345 400.027 147.345C396.746 147.345 394.086 150.005 394.086 153.286C394.086 156.567 396.746 159.226 400.027 159.226Z" fill="#FF7C51"/>
<path d="M409.164 128.949C409.164 128.981 409.16 129.013 409.156 129.045C408.899 132.847 407.106 136.376 404.212 138.856C400.736 141.835 396.017 145.544 393.702 145.906C387.954 146.803 385.579 144.154 383.806 140.645C382.809 138.679 382.251 135.601 381.937 132.916C381.688 130.826 381.591 128.973 381.555 128.052C381.539 127.662 381.535 127.441 381.535 127.441C381.535 127.441 381.563 125.616 381.917 123.868C382.046 123.233 382.214 122.606 382.444 122.079C383.304 120.106 386.081 113.731 394.964 113.578C403.843 113.426 407.581 117.939 408.803 122.007C409.329 123.772 409.333 126.461 409.168 128.945L409.164 128.949Z" fill="#FF7C51"/>
<path d="M390.531 132.365C390.531 132.365 390.969 129.025 393.787 127.843C396.604 126.662 399.137 128.643 399.137 128.643C399.137 128.643 398.908 131.915 395.789 133.117C392.67 134.318 390.531 132.365 390.531 132.365Z" fill="white"/>
<path d="M394.839 133.382C396.428 133.382 397.717 132.093 397.717 130.504C397.717 128.914 396.428 127.626 394.839 127.626C393.249 127.626 391.961 128.914 391.961 130.504C391.961 132.093 393.249 133.382 394.839 133.382Z" fill="#051F2D"/>
<path d="M386.482 132.454C386.482 132.454 384.814 134.262 382.378 133.149C382.222 133.081 382.077 133 381.944 132.916C381.695 130.826 381.599 128.973 381.562 128.052C382.25 127.864 383.078 127.847 383.942 128.274C386.141 129.367 386.486 132.45 386.486 132.45L386.482 132.454Z" fill="white"/>
<path d="M383.888 133.502C384.978 133.43 385.782 132.184 385.685 130.72C385.588 129.256 384.625 128.128 383.536 128.2C382.446 128.272 381.641 129.518 381.739 130.982C381.836 132.446 382.798 133.574 383.888 133.502Z" fill="#051F2D"/>
<path d="M387.276 130.042C387.276 130.042 386.134 132.647 386.331 134.162C386.528 135.677 388.381 136.192 388.381 136.192" stroke="#051F2D" stroke-width="0.683292" stroke-linecap="round" stroke-linejoin="round"/>
<path d="M389.094 134.656L389.918 135.484" stroke="#051F2D" stroke-width="0.683292" stroke-linecap="round" stroke-linejoin="round"/>
<path d="M390.785 138.993C390.785 138.993 393.072 138.362 393.703 136.826" stroke="#051F2D" stroke-width="0.683292" stroke-linecap="round" stroke-linejoin="round"/>
<path d="M390.785 126.34C390.785 126.34 395.122 122.594 399.141 125.906" stroke="#051F2D" stroke-width="0.683292" stroke-linecap="round" stroke-linejoin="round"/>
<path d="M381.918 125.44C381.918 125.44 383.606 124.21 386.311 126.34" stroke="#051F2D" stroke-width="0.683292" stroke-linecap="round" stroke-linejoin="round"/>
<path d="M408.011 136.32L404.409 133.792L403.843 132.916L402.54 130.91L402.227 127.055C402.227 127.055 401.258 126.883 399.747 126.473C398.256 126.067 396.234 125.44 394.092 124.523C391.427 123.386 388.384 118.474 388.384 118.474C388.384 118.474 387.142 118.796 385.394 119.459C384.397 119.841 383.939 120.665 383.4 121.517C383.147 121.919 382.926 122.357 382.737 122.803C382.431 123.506 382.202 124.234 382.03 124.901C382.03 124.917 382.021 124.929 382.017 124.949C381.708 126.127 381.579 127.1 381.547 127.365C381.539 127.385 381.535 127.405 381.535 127.429C381.535 127.104 381.547 119.801 386.306 115.548C386.664 115.231 387.15 114.909 387.729 114.608C392.323 112.208 403.095 110.865 407.645 118.764C411.15 124.849 408.007 136.32 408.007 136.32H408.011Z" fill="#051F2D"/>
<path d="M381.535 127.803C381.535 127.803 381.973 130.34 381.334 133.583C380.695 136.827 382.475 141.333 382.475 141.333C382.475 141.333 382.158 136.879 382.745 134.817C384.678 128.049 382.728 126.702 384.79 120.448C384.987 119.853 382.986 121.019 382.56 121.581C382.134 122.14 381.535 127.803 381.535 127.803Z" fill="#051F2D"/>
<path d="M404.707 131.818L403.847 132.919L403.324 133.583C403.324 133.583 402.167 130.078 399.747 126.476C397.81 123.59 395.056 120.636 391.435 119.39C389.357 118.675 387.524 118.791 385.888 119.712C384.747 120.355 383.702 121.392 382.741 122.807C382.741 122.815 382.733 122.819 382.729 122.823C382.492 123.176 382.255 123.94 382.03 124.901C382.03 124.917 382.021 124.929 382.017 124.949C381.853 125.672 381.692 126.504 381.547 127.365C381.539 127.385 381.535 127.405 381.535 127.429C381.535 127.103 381.547 119.8 386.306 115.548C386.664 115.23 387.15 114.909 387.729 114.607C388.967 114.213 390.374 114.008 391.957 114.157C404.892 115.379 404.703 131.818 404.703 131.818H404.707Z" fill="#E3D3BD"/>
<path d="M407.111 139.769C410.208 139.769 412.718 137.258 412.718 134.162C412.718 131.065 410.208 128.555 407.111 128.555C404.014 128.555 401.504 131.065 401.504 134.162C401.504 137.258 404.014 139.769 407.111 139.769Z" fill="#FF7C51"/>
<path d="M409.718 131.509L405.578 135.649" stroke="#051F2D" stroke-width="0.683292" stroke-linecap="round" stroke-linejoin="round"/>
<path d="M409.645 139.165C410.116 139.885 410.401 140.861 410.401 141.934C410.401 144.153 409.167 145.954 407.648 145.954C406.128 145.954 404.895 144.153 404.895 141.934C404.895 139.716 406.128 137.915 407.648 137.915" stroke="white" stroke-width="0.683292" stroke-linecap="round" stroke-linejoin="round"/>
<path d="M407.645 147.558C408.342 147.558 408.907 146.993 408.907 146.296C408.907 145.599 408.342 145.034 407.645 145.034C406.948 145.034 406.383 145.599 406.383 146.296C406.383 146.993 406.948 147.558 407.645 147.558Z" fill="white"/>
<path d="M399.583 247.572L395.202 318.264L378.871 317.774L379.671 246.704L399.583 247.572Z" fill="#FF7C51"/>
<path d="M389.636 256.965C395.139 256.965 399.6 252.504 399.6 247.001C399.6 241.498 395.139 237.037 389.636 237.037C384.133 237.037 379.672 241.498 379.672 247.001C379.672 252.504 384.133 256.965 389.636 256.965Z" fill="#FF7C51"/>
<path d="M393.566 313.111L428.278 361.4L430.533 364.539L433.213 368.265L422.691 376.195L419.841 372.598L417.445 369.567L380.52 322.943L393.566 313.111Z" fill="#FF7C51"/>
<path d="M387.035 326.195C391.545 326.195 395.202 322.538 395.202 318.028C395.202 313.517 391.545 309.86 387.035 309.86C382.524 309.86 378.867 313.517 378.867 318.028C378.867 322.538 382.524 326.195 387.035 326.195Z" fill="#FF7C51"/>
<path d="M427.596 378.374C431.248 378.374 434.208 375.414 434.208 371.762C434.208 368.111 431.248 365.15 427.596 365.15C423.945 365.15 420.984 368.111 420.984 371.762C420.984 375.414 423.945 378.374 427.596 378.374Z" fill="#FF7C51"/>
<path d="M422.316 375.741L433.088 368.072L433.989 394.182C427.739 392.152 423.812 392.832 423.595 393.149C424.8 385.902 422.316 375.741 422.316 375.741Z" fill="#FF7C51"/>
<path d="M439.549 374.917C437.857 372.614 436.458 371.043 435.417 369.998L433.09 368.072L433.102 368.209L430.542 392.024C424.291 389.994 423.813 392.828 423.596 393.145C423.423 394.17 423.335 394.548 423.098 395.34L429.919 400.364L434.356 397.205C436.49 395.685 437.833 393.298 438.03 390.689L437.415 379.274L438.637 381.208L444.919 389.684L447.724 387.687C447.724 387.687 443.476 380.255 439.549 374.909V374.917Z" fill="#051F2D"/>
<path d="M430.055 400.271L422.824 405.416C422.824 405.416 420.292 402.209 423.178 395.11L430.055 400.271Z" fill="#051F2D"/>
<path d="M427.333 401.192C429.794 401.192 431.79 399.196 431.79 396.734C431.79 394.273 429.794 392.277 427.333 392.277C424.871 392.277 422.875 394.273 422.875 396.734C422.875 399.196 424.871 401.192 427.333 401.192Z" fill="#051F2D"/>
<path d="M420.007 242.878L416.397 313.611L400.059 313.301L400.087 242.223L420.007 242.878Z" fill="#FF7C51"/>
<path d="M410.054 252.379C415.557 252.379 420.018 247.918 420.018 242.415C420.018 236.912 415.557 232.451 410.054 232.451C404.551 232.451 400.09 236.912 400.09 242.415C400.09 247.918 404.551 252.379 410.054 252.379Z" fill="#FF7C51"/>
<path d="M416.405 313.622L413.929 373.044L413.768 376.903L413.575 381.489L400.404 381.24L400.38 376.646L400.364 372.783L400.066 313.309L416.405 313.622Z" fill="#FF7C51"/>
<path d="M408.234 321.633C412.744 321.633 416.401 317.976 416.401 313.466C416.401 308.955 412.744 305.298 408.234 305.298C403.723 305.298 400.066 308.955 400.066 313.466C400.066 317.976 403.723 321.633 408.234 321.633Z" fill="#FF7C51"/>
<path d="M406.995 387.39C410.646 387.39 413.607 384.43 413.607 380.778C413.607 377.126 410.646 374.166 406.995 374.166C403.343 374.166 400.383 377.126 400.383 380.778C400.383 384.43 403.343 387.39 406.995 387.39Z" fill="#FF7C51"/>
<path d="M400.113 322.211L400.238 347.401" stroke="#051F2D" stroke-width="0.683292" stroke-linecap="round" stroke-linejoin="round"/>
<path d="M415.349 343.417L414.32 365.657" stroke="#051F2D" stroke-width="0.683292" stroke-linecap="round" stroke-linejoin="round"/>
<path d="M400.305 380.946H413.529L399.124 402.739C395.209 397.466 391.616 395.738 391.258 395.87C396.443 390.665 400.309 380.946 400.309 380.946H400.305Z" fill="#FF7C51"/>
<path d="M414.824 390.267C414.784 387.409 414.55 385.319 414.309 383.864L413.53 380.946L413.457 381.067L397.561 398.985C393.646 393.712 391.612 395.738 391.254 395.87C390.519 396.606 390.229 396.859 389.578 397.369L392.223 405.42H397.669C400.286 405.42 402.77 404.255 404.438 402.241L410.555 392.586L410.431 394.873L410.632 405.424H414.076C414.076 405.424 414.924 396.907 414.824 390.275V390.267Z" fill="#051F2D"/>
<path d="M392.391 405.42H383.516C383.516 405.42 383.311 401.341 389.783 397.229L392.391 405.42Z" fill="#051F2D"/>
<path d="M392.223 405.416C394.685 405.416 396.681 403.42 396.681 400.958C396.681 398.497 394.685 396.501 392.223 396.501C389.761 396.501 387.766 398.497 387.766 400.958C387.766 403.42 389.761 405.416 392.223 405.416Z" fill="#051F2D"/>
<path d="M398.951 232.355C408.329 232.355 415.932 224.752 415.932 215.373C415.932 205.994 408.329 198.391 398.951 198.391C389.572 198.391 381.969 205.994 381.969 215.373C381.969 224.752 389.572 232.355 398.951 232.355Z" fill="#051F2D"/>
<path d="M419.287 242.375L377.976 242.15C376.003 242.138 374.484 240.092 374.749 237.789C375.091 234.774 375.774 231.012 377.136 226.747C378.238 223.279 379.793 219.472 381.968 215.457H415.931C415.931 215.457 421.229 225.574 422.551 238.078C422.796 240.373 421.249 242.387 419.287 242.375Z" fill="#051F2D"/>
<path d="M422.606 238.633L421.448 313.489L416.078 313.526L413.144 295.145L410.495 313.381L374.711 313.063L374.659 239.742C374.414 236.314 376.681 231.41 379.587 231.438L418.341 231.824C420.656 231.663 422.626 235.892 422.606 238.633Z" fill="#051F2D"/>
<path d="M376.31 211.128L348.207 178.68L356.089 171.891L385.507 202.47L376.31 211.128Z" fill="#FF7C51"/>
<path d="M380.979 213.194C384.468 213.194 387.297 210.366 387.297 206.876C387.297 203.386 384.468 200.558 380.979 200.558C377.489 200.558 374.66 203.386 374.66 206.876C374.66 210.366 377.489 213.194 380.979 213.194Z" fill="#FF7C51"/>
<path d="M393.421 163.366L387.252 207.603L374.703 206.148L378.803 161.67L393.421 163.366Z" fill="#FF7C51"/>
<path d="M386.113 169.878C390.178 169.878 393.473 166.583 393.473 162.518C393.473 158.454 390.178 155.159 386.113 155.159C382.049 155.159 378.754 158.454 378.754 162.518C378.754 166.583 382.049 169.878 386.113 169.878Z" fill="#C7A77B"/>
<path d="M390.038 187.636L370.66 186.49C370.737 185.614 372.188 168.467 379.511 159.259L393.426 163.363L390.042 187.636H390.038Z" fill="#C7A77B"/>
<path d="M370.887 182.844L390.545 184.001" stroke="#051F2D" stroke-width="0.683292" stroke-linecap="round" stroke-linejoin="round"/>
<path d="M423.222 162.04C423.101 159.222 421.417 156.232 418.656 155.36C412.008 153.262 406.115 153.262 406.115 153.262H394.262C394.262 153.262 390.677 153.692 384.793 155.621C382.039 156.525 379.29 159.222 379.165 162.04L373.008 218.697H428.981L423.226 162.04H423.222Z" fill="#C7A77B"/>
<path d="M376.461 186.948L378.314 169.894" stroke="#051F2D" stroke-width="0.683292" stroke-linecap="round" stroke-linejoin="round"/>
<path d="M423.379 157.795L454.156 190.167L445.205 199.082L412.949 168.185L423.379 157.795Z" fill="#FF7C51"/>
<path d="M418.168 170.348C422.233 170.348 425.528 167.053 425.528 162.988C425.528 158.924 422.233 155.629 418.168 155.629C414.104 155.629 410.809 158.924 410.809 162.988C410.809 167.053 414.104 170.348 418.168 170.348Z" fill="#C7A77B"/>
<path d="M430.642 185.131L445.47 170.199C444.822 169.604 432.262 157.896 420.646 156.039L412.129 167.506L430.646 185.131H430.642Z" fill="#C7A77B"/>
<path d="M430.643 185.131L416.254 171.803" stroke="#051F2D" stroke-width="0.683292" stroke-linecap="round" stroke-linejoin="round"/>
<path d="M442.603 167.707L427.965 182.651" stroke="#051F2D" stroke-width="0.683292" stroke-linecap="round" stroke-linejoin="round"/>
<path d="M386.085 213.934L417.684 213.785C417.898 213.784 418.069 213.61 418.068 213.397L417.858 168.626C417.857 168.413 417.683 168.241 417.47 168.242L385.87 168.391C385.657 168.392 385.485 168.566 385.486 168.779L385.697 213.55C385.698 213.763 385.871 213.935 386.085 213.934Z" fill="white"/>
<path d="M406.737 166.582L403.791 166.594C403.787 165.392 402.807 164.42 401.605 164.428C400.403 164.432 399.43 165.413 399.438 166.614L396.492 166.626C395.648 166.626 394.965 167.318 394.969 168.166L394.985 171.397L408.297 171.337L408.281 168.106C408.281 167.261 407.59 166.578 406.741 166.582H406.737ZM401.617 167.515C401.114 167.515 400.704 167.113 400.704 166.61C400.704 166.108 401.106 165.698 401.609 165.698C402.111 165.698 402.521 166.1 402.521 166.602C402.521 167.105 402.119 167.515 401.617 167.515Z" fill="#051F2D"/>
<path d="M449.682 200.947C453.171 200.947 456 198.119 456 194.629C456 191.139 453.171 188.311 449.682 188.311C446.192 188.311 443.363 191.139 443.363 194.629C443.363 198.119 446.192 200.947 449.682 200.947Z" fill="#FF7C51"/>
<path d="M450.244 200.919L407.824 202.708L407.434 192.615L449.106 188.339L450.244 200.919Z" fill="#FF7C51"/>
<path d="M442.5 189.018L449.112 188.339" stroke="#051F2D" stroke-width="0.683292" stroke-linecap="round" stroke-linejoin="round"/>
<path d="M394.952 181.18C393.831 181.397 392.866 183.961 394.14 186.835C394.305 187.201 394.438 187.566 394.582 187.9L398.477 186.015C397.328 183.555 396.347 180.914 394.952 181.184V181.18Z" fill="#FF7C51"/>
<path d="M396.549 189.158C397.743 189.158 398.712 188.19 398.712 186.996C398.712 185.802 397.743 184.833 396.549 184.833C395.355 184.833 394.387 185.802 394.387 186.996C394.387 188.19 395.355 189.158 396.549 189.158Z" fill="#FF7C51"/>
<path d="M398.416 193.001C399.611 193.001 400.579 192.033 400.579 190.839C400.579 189.644 399.611 188.676 398.416 188.676C397.222 188.676 396.254 189.644 396.254 190.839C396.254 192.033 397.222 193.001 398.416 193.001Z" fill="#FF7C51"/>
<path d="M398.427 185.918L394.645 188.021C395.774 190.235 396.413 191.662 396.413 191.662L400.392 189.958C400.392 189.958 399.556 187.968 398.431 185.918H398.427Z" fill="#FF7C51"/>
<path d="M386.727 197.824C386.707 196.896 387.274 196.317 388.098 195.963C388.098 195.867 388.098 195.77 388.098 195.674C387.519 195.425 387.109 194.89 387.02 193.893C386.88 192.289 388.572 191.61 390.34 191.341C391.55 191.132 394.967 190.549 395.059 190.609C395.216 190.71 397.294 189.745 398.419 189.215C398.849 189.01 399.356 189.086 399.714 189.404C402.045 191.469 405.204 191.739 407.764 192.506L408.416 202.913C408.416 202.913 396.96 205.171 395.365 205.067C391.1 204.786 390.566 203.403 390.566 202.732C389.44 202.78 388.415 202.434 388.375 201.056C388.363 200.589 388.488 200.22 388.705 199.918C387.623 199.862 386.763 199.355 386.731 197.824H386.727Z" fill="#FF7C51"/>
<path d="M396.379 190.577L394.027 190.854" stroke="#051F2D" stroke-width="0.683292" stroke-linecap="round" stroke-linejoin="round"/>
<path d="M388.059 195.654L390.727 195.593" stroke="#051F2D" stroke-width="0.683292" stroke-linecap="round" stroke-linejoin="round"/>
<path d="M388.723 200.079L391.018 199.874" stroke="#051F2D" stroke-width="0.683292" stroke-linecap="round" stroke-linejoin="round"/>
<path d="M390.32 202.736L392.752 202.676" stroke="#051F2D" stroke-width="0.683292" stroke-linecap="round" stroke-linejoin="round"/>
<path d="M407.838 202.937C410.72 202.937 413.055 200.601 413.055 197.72C413.055 194.838 410.72 192.502 407.838 192.502C404.957 192.502 402.621 194.838 402.621 197.72C402.621 200.601 404.957 202.937 407.838 202.937Z" fill="#FF7C51"/>
<path d="M353.648 154.789C352.583 154.632 350.718 156.473 350.895 159.636C350.919 160.042 350.911 160.283 350.927 160.649L355.276 160.396C355.075 157.666 355.071 154.998 353.652 154.789H353.648Z" fill="#FF7C51"/>
<path d="M353.112 162.84C354.318 162.84 355.295 161.862 355.295 160.657C355.295 159.452 354.318 158.475 353.112 158.475C351.907 158.475 350.93 159.452 350.93 160.657C350.93 161.862 351.907 162.84 353.112 162.84Z" fill="#FF7C51"/>
<path d="M353.034 167.144C354.239 167.144 355.217 166.167 355.217 164.962C355.217 163.756 354.239 162.779 353.034 162.779C351.829 162.779 350.852 163.756 350.852 164.962C350.852 166.167 351.829 167.144 353.034 167.144Z" fill="#FF7C51"/>
<path d="M355.289 160.633L350.928 160.649C350.932 163.153 350.859 164.805 350.859 164.805L355.208 165.067C355.208 165.067 355.365 162.989 355.289 160.633Z" fill="#FF7C51"/>
<path d="M347.795 161.236C348.659 161.702 349.688 162.168 350.218 162.422C350.415 162.534 350.52 162.59 350.552 162.606L353.888 161.895C354.439 161.778 354.981 162.132 355.09 162.687C355.846 166.441 356.754 169.596 356.107 172.233L347.622 178.29C344.981 176.94 340.825 171.835 338.498 169.17C338.04 168.644 338.534 168.374 339.037 167.892C340.693 166.296 344.23 162.912 345.942 161.437C346.46 160.991 347.196 160.914 347.799 161.236H347.795Z" fill="#FF7C51"/>
<path d="M351.733 180.292C354.614 180.292 356.95 177.956 356.95 175.075C356.95 172.194 354.614 169.858 351.733 169.858C348.851 169.858 346.516 172.194 346.516 175.075C346.516 177.956 348.851 180.292 351.733 180.292Z" fill="#FF7C51"/>
<path d="M336.157 158.205C335.896 157.888 334.815 156.618 335.663 155.745C336.322 155.066 337.805 155.098 339.196 155.854C339.879 156.224 342.452 157.679 342.624 157.803L340.225 161.276C340.225 161.276 336.724 158.897 336.157 158.205Z" fill="#FF7C51"/>
<path d="M341.544 161.735C342.712 161.735 343.658 160.788 343.658 159.621C343.658 158.453 342.712 157.506 341.544 157.506C340.376 157.506 339.43 158.453 339.43 159.621C339.43 160.788 340.376 161.735 341.544 161.735Z" fill="#FF7C51"/>
<path d="M346.7 165.223C347.868 165.223 348.814 164.276 348.814 163.109C348.814 161.941 347.868 160.995 346.7 160.995C345.532 160.995 344.586 161.941 344.586 163.109C344.586 164.276 345.532 165.223 346.7 165.223Z" fill="#FF7C51"/>
<path d="M342.735 157.872L347.879 161.352L345.54 164.877C345.54 164.877 340.548 161.646 340.086 161.152L342.735 157.868V157.872Z" fill="#FF7C51"/>
<path d="M338.83 162.168C340.013 162.168 340.972 161.209 340.972 160.026C340.972 158.843 340.013 157.884 338.83 157.884C337.647 157.884 336.688 158.843 336.688 160.026C336.688 161.209 337.647 162.168 338.83 162.168Z" fill="#FF7C51"/>
<path d="M337.125 158.724C337.844 157.783 339.191 157.606 340.131 158.326C341.072 159.045 341.249 160.392 340.529 161.332" stroke="#051F2D" stroke-width="0.683292" stroke-linecap="round" stroke-linejoin="round"/>
<path d="M332.802 157.7C332.565 157.362 331.592 156.007 332.504 155.208C333.22 154.581 334.393 154.685 335.716 155.549C336.367 155.975 339.803 158.089 339.92 158.182L337.468 161.687C337.468 161.687 333.308 158.431 332.798 157.7H332.802Z" fill="#FF7C51"/>
<path d="M335.719 155.548C336.37 155.974 339.806 158.089 339.923 158.181" stroke="#051F2D" stroke-width="0.683292" stroke-linecap="round" stroke-linejoin="round"/>
<path d="M344.032 166.181C345.2 166.181 346.146 165.234 346.146 164.066C346.146 162.899 345.2 161.952 344.032 161.952C342.864 161.952 341.918 162.899 341.918 164.066C341.918 165.234 342.864 166.181 344.032 166.181Z" fill="#FF7C51"/>
<path d="M340.214 158.39L345.359 162.418L342.766 165.758C342.766 165.758 338.019 162.16 337.473 161.686L340.214 158.39Z" fill="#FF7C51"/>
<path d="M340.215 158.39L345.36 162.418" stroke="#051F2D" stroke-width="0.683292" stroke-linecap="round" stroke-linejoin="round"/>
<path d="M337.067 165.24C338.235 165.24 339.182 164.293 339.182 163.125C339.182 161.958 338.235 161.011 337.067 161.011C335.9 161.011 334.953 161.958 334.953 163.125C334.953 164.293 335.9 165.24 337.067 165.24Z" fill="#FF7C51"/>
<path d="M339.016 163.945C339.47 162.868 338.964 161.63 337.89 161.175C336.813 160.721 335.575 161.228 335.121 162.301" stroke="#051F2D" stroke-width="0.683292" stroke-linecap="round" stroke-linejoin="round"/>
<path d="M331.942 161.445C331.7 161.112 330.696 159.781 331.592 158.961C332.291 158.322 333.469 158.399 334.811 159.235C335.471 159.645 338.071 161.232 338.216 161.345L335.631 164.677C335.631 164.677 332.464 162.165 331.942 161.445Z" fill="#FF7C51"/>
<path d="M334.805 159.238C335.464 159.648 338.064 161.236 338.209 161.348" stroke="#051F2D" stroke-width="0.683292" stroke-linecap="round" stroke-linejoin="round"/>
<path d="M342.118 168.865C343.286 168.865 344.232 167.918 344.232 166.75C344.232 165.583 343.286 164.636 342.118 164.636C340.95 164.636 340.004 165.583 340.004 166.75C340.004 167.918 340.95 168.865 342.118 168.865Z" fill="#FF7C51"/>
<path d="M338.29 161.397L343.386 165.054L340.906 168.479C340.906 168.479 336.372 165.384 335.633 164.676L338.286 161.393L338.29 161.397Z" fill="#FF7C51"/>
<path d="M338.289 161.397L343.386 165.055" stroke="#051F2D" stroke-width="0.683292" stroke-linecap="round" stroke-linejoin="round"/>
<path d="M337.278 165.718C338.446 165.718 339.392 164.771 339.392 163.603C339.392 162.436 338.446 161.489 337.278 161.489C336.111 161.489 335.164 162.436 335.164 163.603C335.164 164.771 336.111 165.718 337.278 165.718Z" fill="#FF7C51"/>
<path d="M337.227 161.489C336.057 161.517 335.137 162.49 335.165 163.656C335.193 164.821 336.166 165.746 337.331 165.718" stroke="#051F2D" stroke-width="0.683292" stroke-linecap="round" stroke-linejoin="round"/>
<path d="M336.343 159.717C336.548 159.359 337.348 157.896 338.461 158.374C339.334 158.748 339.744 159.854 339.535 161.421C339.43 162.189 339.418 163.005 339.386 163.656L335.25 162.989C335.25 162.989 335.901 160.493 336.343 159.717Z" fill="#FF7C51"/>
<path d="M335.254 162.984C335.254 162.984 335.905 160.488 336.347 159.712C336.552 159.355 337.352 157.892 338.465 158.37C339.338 158.744 339.748 159.849 339.539 161.417C339.434 162.184 339.422 163 339.39 163.651" stroke="#051F2D" stroke-width="0.683292" stroke-linecap="round" stroke-linejoin="round"/>
<path d="M339.833 169.592C341.001 169.592 341.947 168.645 341.947 167.477C341.947 166.31 341.001 165.363 339.833 165.363C338.665 165.363 337.719 166.31 337.719 167.477C337.719 168.645 338.665 169.592 339.833 169.592Z" fill="#FF7C51"/>
<path d="M339.047 162.442L341.603 166.325L338.142 168.752C338.142 168.752 335.747 165.328 335.445 164.657L339.047 162.442Z" fill="#FF7C51"/>
<path d="M336.43 166.252C335.964 165.549 335.554 164.91 335.441 164.657" stroke="#051F2D" stroke-width="0.683292" stroke-linecap="round" stroke-linejoin="round"/>
<path d="M339.043 162.442L341.599 166.325" stroke="#051F2D" stroke-width="0.683292" stroke-linecap="round" stroke-linejoin="round"/>
<path d="M350.219 162.422L351.658 163.23" stroke="#051F2D" stroke-width="0.683292" stroke-linecap="round" stroke-linejoin="round"/>
<path d="M346.29 162.478L341.125 167.157" stroke="#051F2D" stroke-width="0.683292" stroke-linecap="round" stroke-linejoin="round"/>
<path d="M69.8545 247.347L56.064 307.252L40.0469 304.012L50.3766 243.135L69.8545 247.347Z" fill="#FF7C51"/>
<path d="M74.7277 248.263L58.9477 307.734L37.2109 303.618L48.2562 242.685L74.7277 248.263Z" fill="#C7A77B"/>
<path d="M61.5997 258.481C69.0761 258.481 75.1369 252.42 75.1369 244.943C75.1369 237.467 69.0761 231.406 61.5997 231.406C54.1233 231.406 48.0625 237.467 48.0625 244.943C48.0625 252.42 54.1233 258.481 61.5997 258.481Z" fill="#C7A77B"/>
<path d="M32.3228 387.289C35.9744 387.289 38.9346 384.329 38.9346 380.677C38.9346 377.026 35.9744 374.065 32.3228 374.065C28.6712 374.065 25.7109 377.026 25.7109 380.677C25.7109 384.329 28.6712 387.289 32.3228 387.289Z" fill="#FF7C51"/>
<path d="M55.7224 307.183L40.5252 374.31L39.6731 378.081L38.6602 382.558L25.75 379.95L26.5498 375.428L27.2251 371.621L39.7052 303.943L55.7224 307.183Z" fill="#FF7C51"/>
<path d="M58.9468 307.734L45.5462 374.756L19.3359 368.711L37.2101 303.618L58.9468 307.734Z" fill="#C7A77B"/>
<path d="M48.0767 316.733C54.1812 316.733 59.1299 311.784 59.1299 305.68C59.1299 299.575 54.1812 294.626 48.0767 294.626C41.9721 294.626 37.0234 299.575 37.0234 305.68C37.0234 311.784 41.9721 316.733 48.0767 316.733Z" fill="#C7A77B"/>
<path d="M47.3661 370.134L19.457 363.696L17.8741 370.558L45.7832 376.996L47.3661 370.134Z" fill="#9F8562"/>
<path d="M15.4628 405.392C18.413 405.392 20.8046 403 20.8046 400.05C20.8046 397.1 18.413 394.708 15.4628 394.708C12.5127 394.708 10.1211 397.1 10.1211 400.05C10.1211 403 12.5127 405.392 15.4628 405.392Z" fill="#051F2D"/>
<path d="M42.3618 405.344L16.0872 405.159L15.6572 401.345L13.8203 394.97C18.8686 392.028 22.4217 387.591 24.0416 384.58C24.8374 383.105 25.3117 381.899 25.5408 381.256C25.6573 380.927 25.7096 380.742 25.7096 380.742L38.7484 381.067C38.7484 381.067 41.0595 391.353 41.0997 391.594C41.2967 392.719 41.4856 393.893 41.6504 395.087C41.9398 397.161 42.1608 399.307 42.2573 401.393C42.398 404.42 42.3739 405.348 42.3739 405.348L42.3618 405.344Z" fill="#FF7C51"/>
<path d="M42.9285 401.377L15.4883 401.425L15.5807 405.392L43.234 405.344C43.234 405.344 43.9132 403.789 42.9245 401.377H42.9285Z" fill="#051F2D"/>
<path d="M38.9468 381.159L38.9414 378.056L25.4725 378.08L25.478 381.183L38.9468 381.159Z" fill="#051F2D"/>
<path d="M39.4694 401.767L36.901 403.511L24.0391 384.576C24.8349 383.101 25.3092 381.895 25.5383 381.252L39.4734 401.767H39.4694Z" fill="#051F2D"/>
<path d="M41.64 395.083L36.0571 399.359L34.168 396.895L41.0933 391.59C41.2903 392.715 41.4792 393.889 41.644 395.083H41.64Z" fill="#051F2D"/>
<path d="M15.4645 401.425C16.2237 401.425 16.8391 400.81 16.8391 400.05C16.8391 399.291 16.2237 398.676 15.4645 398.676C14.7053 398.676 14.0898 399.291 14.0898 400.05C14.0898 400.81 14.7053 401.425 15.4645 401.425Z" fill="#FF7C51"/>
<path d="M15.5009 401.433L14.4117 405.163L0.199225 405.392C0.199225 405.34 -0.0258567 403.495 1.2322 401.437C2.10843 400.006 4.91796 398.475 7.71142 397.241C8.76449 396.775 9.81756 396.349 10.7581 395.987C10.939 395.919 11.1158 395.85 11.2886 395.786C13.0853 395.111 14.4639 394.805 14.4639 394.805L15.5009 401.437V401.433Z" fill="#FF7C51"/>
<path d="M12.6507 404.295H9.54779L7.71094 397.241C8.76401 396.775 9.81708 396.349 10.7576 395.987L12.6507 404.295Z" fill="#051F2D"/>
<path d="M15.4906 401.425L0.176853 401.453C9.82248e-07 404.202 0 405.42 0 405.42L15.5831 405.392L15.4906 401.425Z" fill="#051F2D"/>
<path d="M73.6757 237.889C84.7127 237.889 93.66 228.942 93.66 217.905C93.66 206.868 84.7127 197.921 73.6757 197.921C62.6387 197.921 53.6914 206.868 53.6914 217.905C53.6914 228.942 62.6387 237.889 73.6757 237.889Z" fill="#051F2D"/>
<path d="M53.7059 219.235L93.3771 214.348C93.3771 214.348 102.646 226.108 104.499 238.544C104.828 240.751 102.907 240.305 100.588 240.582L48.324 246.76C47.7774 242.202 47.705 231.796 53.71 219.235H53.7059Z" fill="#C7A77B"/>
<path d="M93.3771 214.348L49.4414 231.137C50.3056 227.535 51.6521 223.532 53.7059 219.235L93.3771 214.348Z" fill="#051F2D"/>
<path d="M92.897 386.743C96.5486 386.743 99.5089 383.783 99.5089 380.131C99.5089 376.479 96.5486 373.519 92.897 373.519C89.2454 373.519 86.2852 376.479 86.2852 380.131C86.2852 383.783 89.2454 386.743 92.897 386.743Z" fill="#FF7C51"/>
<path d="M99.4167 303.276L99.4851 372.108L99.4891 375.971L99.4971 380.561L86.3256 380.878L86.1046 376.292L85.9197 372.434L83.082 303.67L99.4167 303.276Z" fill="#FF7C51"/>
<path d="M102.683 303.1L104.484 371.425L77.582 371.341L80.5765 303.908L102.683 303.1Z" fill="#C7A77B"/>
<path d="M91.6314 314.559C97.7359 314.559 102.685 309.61 102.685 303.505C102.685 297.401 97.7359 292.452 91.6314 292.452C85.5268 292.452 80.5781 297.401 80.5781 303.505C80.5781 309.61 85.5268 314.559 91.6314 314.559Z" fill="#C7A77B"/>
<path d="M105.216 366.524L76.5742 366.434L76.5521 373.476L105.194 373.566L105.216 366.524Z" fill="#9F8562"/>
<path d="M99.8147 241.796L99.6499 303.268L83.3152 303.662L79.8867 242.005L99.8147 241.796Z" fill="#FF7C51"/>
<path d="M104.766 241.607L102.563 303.1L80.4568 303.908L77.6875 242.05L104.766 241.607Z" fill="#C7A77B"/>
<path d="M91.2286 254.823C98.705 254.823 104.766 248.762 104.766 241.286C104.766 233.809 98.705 227.749 91.2286 227.749C83.7522 227.749 77.6914 233.809 77.6914 241.286C77.6914 248.762 83.7522 254.823 91.2286 254.823Z" fill="#C7A77B"/>
<path d="M109.748 404.837C112.698 404.837 115.09 402.446 115.09 399.496C115.09 396.545 112.698 394.154 109.748 394.154C106.798 394.154 104.406 396.545 104.406 399.496C104.406 402.446 106.798 404.837 109.748 404.837Z" fill="#051F2D"/>
<path d="M82.8496 404.79L109.124 404.605L109.554 400.79L111.391 394.416C106.343 391.473 102.79 387.036 101.17 384.026C100.374 382.55 99.8997 381.345 99.6706 380.702C99.554 380.372 99.5018 380.187 99.5018 380.187L86.463 380.513C86.463 380.513 84.1518 390.798 84.1116 391.039C83.9147 392.165 83.7258 393.338 83.561 394.532C83.2716 396.606 83.0505 398.752 82.9541 400.839C82.8134 403.865 82.8375 404.794 82.8375 404.794L82.8496 404.79Z" fill="#FF7C51"/>
<path d="M82.2791 400.822L109.719 400.87L109.627 404.838L81.9736 404.789C81.9736 404.789 81.2944 403.234 82.2831 400.822H82.2791Z" fill="#051F2D"/>
<path d="M99.729 380.645L99.7344 377.542L86.2655 377.519L86.2601 380.622L99.729 380.645Z" fill="#051F2D"/>
<path d="M85.7384 401.212L88.3068 402.957L101.169 384.021C100.373 382.546 99.8986 381.34 99.6695 380.697L85.7344 401.212H85.7384Z" fill="#051F2D"/>
<path d="M83.5704 394.531L89.1533 398.808L91.0424 396.344L84.1171 391.039C83.9201 392.164 83.7312 393.338 83.5664 394.531H83.5704Z" fill="#051F2D"/>
<path d="M109.746 400.871C110.505 400.871 111.12 400.255 111.12 399.496C111.12 398.737 110.505 398.122 109.746 398.122C108.987 398.122 108.371 398.737 108.371 399.496C108.371 400.255 108.987 400.871 109.746 400.871Z" fill="#FF7C51"/>
<path d="M109.711 400.879L110.8 404.609L125.013 404.838C125.013 404.786 125.238 402.941 123.98 400.883C123.103 399.452 120.294 397.921 117.5 396.687C116.447 396.22 115.394 395.794 114.454 395.433C114.273 395.364 114.096 395.296 113.923 395.232C112.127 394.556 110.748 394.251 110.748 394.251L109.711 400.883V400.879Z" fill="#FF7C51"/>
<path d="M112.559 403.74H115.662L117.498 396.686C116.445 396.22 115.392 395.794 114.452 395.432L112.559 403.74Z" fill="#051F2D"/>
<path d="M109.721 400.871L125.035 400.899C125.212 403.648 125.212 404.866 125.212 404.866L109.629 404.838L109.721 400.871Z" fill="#051F2D"/>
<path d="M51.042 221.763C49.7277 219.541 44.1971 217.909 44.1971 217.909L37.1953 225.646C37.1953 225.646 41.7894 234.854 46.2469 233.85C50.7044 232.845 52.3564 223.986 51.042 221.763Z" fill="#FF7C51"/>
<path d="M40.6781 226.985C43.5594 226.985 45.8952 224.649 45.8952 221.768C45.8952 218.887 43.5594 216.551 40.6781 216.551C37.7967 216.551 35.4609 218.887 35.4609 221.768C35.4609 224.649 37.7967 226.985 40.6781 226.985Z" fill="#FF7C51"/>
<path d="M52.6146 223.717C52.9844 223.89 54.4636 224.61 55.0866 223.585C55.5729 222.785 55.175 221.374 54.1099 220.232C53.5873 219.674 51.4008 217.407 51.4651 217.499L48.6797 220.586C48.6797 220.586 51.8148 223.343 52.6146 223.713V223.717Z" fill="#FF7C51"/>
<path d="M49.9299 221.012C51.0842 221.012 52.02 220.076 52.02 218.922C52.02 217.767 51.0842 216.832 49.9299 216.832C48.7756 216.832 47.8398 217.767 47.8398 218.922C47.8398 220.076 48.7756 221.012 49.9299 221.012Z" fill="#FF7C51"/>
<path d="M51.5784 227.708C51.9602 227.857 53.4836 228.476 54.0383 227.415C54.4724 226.583 54.0985 225.481 52.9611 224.412C52.4024 223.886 50.0511 221.639 50.1194 221.727L47.543 224.991C47.543 224.991 50.7585 227.39 51.5784 227.708Z" fill="#FF7C51"/>
<path d="M48.6838 225.332C49.8381 225.332 50.7739 224.397 50.7739 223.242C50.7739 222.088 49.8381 221.152 48.6838 221.152C47.5295 221.152 46.5938 222.088 46.5938 223.242C46.5938 224.397 47.5295 225.332 48.6838 225.332Z" fill="#FF7C51"/>
<path d="M53.5064 224.738L48.4219 220.365" stroke="#051F2D" stroke-width="0.683292" stroke-linecap="round" stroke-linejoin="round"/>
<path d="M49.6062 230.273C50.0001 230.373 51.5877 230.812 52.0138 229.69C52.3474 228.814 51.849 227.765 50.5909 226.836C49.976 226.382 47.3755 224.425 47.4518 224.501L45.2773 228.046C45.2773 228.046 48.7501 230.052 49.6062 230.273Z" fill="#FF7C51"/>
<path d="M46.2072 228.267C47.3616 228.267 48.2973 227.331 48.2973 226.177C48.2973 225.022 47.3616 224.086 46.2072 224.086C45.0529 224.086 44.1172 225.022 44.1172 226.177C44.1172 227.331 45.0529 228.267 46.2072 228.267Z" fill="#FF7C51"/>
<path d="M48.2568 233.259C48.6628 233.267 50.3067 233.327 50.4675 232.142C50.5921 231.213 49.8646 230.305 48.4297 229.69C47.7263 229.388 46.1708 228.528 46.2632 228.588L44.9609 232.54C44.9609 232.54 47.3766 233.247 48.2568 233.263V233.259Z" fill="#FF7C51"/>
<path d="M45.426 232.592C46.5803 232.592 47.5161 231.656 47.5161 230.502C47.5161 229.347 46.5803 228.412 45.426 228.412C44.2717 228.412 43.3359 229.347 43.3359 230.502C43.3359 231.656 44.2717 232.592 45.426 232.592Z" fill="#FF7C51"/>
<path d="M50.3736 230.912L45.2891 228.219" stroke="#051F2D" stroke-width="0.683292" stroke-linecap="round" stroke-linejoin="round"/>
<path d="M48.3438 220.281C47.5922 219.404 47.6927 218.086 48.5689 217.334C48.7418 217.186 48.9307 217.073 49.1276 216.989" stroke="#051F2D" stroke-width="0.683292" stroke-linecap="round" stroke-linejoin="round"/>
<path d="M46.8147 224.179C46.4731 223.5 46.5213 222.656 47.0036 222.005C47.6025 221.193 48.6757 220.944 49.5559 221.35" stroke="#051F2D" stroke-width="0.683292" stroke-linecap="round" stroke-linejoin="round"/>
<path d="M45.1761 227.994C44.1713 227.427 43.8216 226.153 44.3883 225.148C44.9551 224.143 46.2292 223.793 47.234 224.36" stroke="#051F2D" stroke-width="0.683292" stroke-linecap="round" stroke-linejoin="round"/>
<path d="M43.3398 230.63C43.2835 229.71 43.8462 228.83 44.7627 228.524C45.036 228.432 45.3133 228.4 45.5866 228.424" stroke="#051F2D" stroke-width="0.683292" stroke-linecap="round" stroke-linejoin="round"/>
<path d="M47.375 224.449L51.9249 227.921" stroke="#051F2D" stroke-width="0.683292" stroke-linecap="round" stroke-linejoin="round"/>
<path d="M36.053 206.088L16.957 193.19C17.4795 192.482 17.9096 191.747 18.4281 191.023C29.3849 175.85 41.9173 159.926 48.8266 157.486L59.3975 167.096L36.049 206.088H36.053Z" fill="#051F2D"/>
<path d="M52.9064 170.983C56.9732 170.983 60.2699 167.686 60.2699 163.619C60.2699 159.553 56.9732 156.256 52.9064 156.256C48.8397 156.256 45.543 159.553 45.543 163.619C45.543 167.686 48.8397 170.983 52.9064 170.983Z" fill="#051F2D"/>
<path d="M26.2386 211.567C32.6073 211.567 37.7701 206.404 37.7701 200.035C37.7701 193.666 32.6073 188.503 26.2386 188.503C19.8699 188.503 14.707 193.666 14.707 200.035C14.707 206.404 19.8699 211.567 26.2386 211.567Z" fill="#051F2D"/>
<path d="M49.1273 214.501L38.6287 227.696C25.7708 225.011 15.6299 204.931 16.2368 205.731L35.8071 193.6L49.1273 214.497V214.501Z" fill="#051F2D"/>
<path d="M40.0914 200.035L35.457 193.109" stroke="#CDD2D5" stroke-width="0.683292" stroke-linecap="round" stroke-linejoin="round"/>
<path d="M103.846 163.153C103.726 160.336 102.444 157.345 99.6823 156.473C93.0343 154.375 83.9264 154.375 83.9264 154.375H65.6423C65.6423 154.375 58.8416 154.403 52.9572 156.332C50.204 157.237 48.2586 159.934 48.134 162.751L46.4258 207.684C46.2811 212.555 50.1919 216.583 55.0674 216.583H93.0062C99.7989 216.583 105.249 210.972 105.048 204.183L103.846 163.153Z" fill="#051F2D"/>
<path d="M92.8461 153.35C93.236 158.973 87.8299 163.933 77.9785 164.62C68.127 165.308 59.819 161.304 59.4291 155.677C59.0392 150.054 66.2701 144.178 76.5596 144.25C86.4352 144.323 92.4562 147.727 92.8461 153.35Z" fill="#051F2D"/>
<path d="M59.4141 155.062C59.4141 155.062 65.6079 166.019 73.5019 166.469" stroke="#CDD2D5" stroke-width="0.683292" stroke-linecap="round" stroke-linejoin="round"/>
<path d="M93.1145 154.89C93.1145 154.89 86.4022 164.886 73.5 166.469" stroke="#CDD2D5" stroke-width="0.683292" stroke-linecap="round" stroke-linejoin="round"/>
<path d="M71.5507 162.181C71.5507 162.181 70.1641 171.453 70.1641 184.09" stroke="#CDD2D5" stroke-width="0.683292" stroke-linecap="round" stroke-linejoin="round"/>
<path d="M74.7812 163.724L74.8295 179.022" stroke="#CDD2D5" stroke-width="0.683292" stroke-linecap="round" stroke-linejoin="round"/>
<path d="M46.9492 187.342C47.0537 186.916 47.3753 174.685 47.3753 174.685" stroke="#CDD2D5" stroke-width="0.683292" stroke-linecap="round" stroke-linejoin="round"/>
<path d="M97.569 209.099L120.085 204.32C119.876 203.464 119.756 202.784 119.555 201.92C115.282 183.696 109.844 164.178 104.406 159.263L90.9531 164.062L97.573 209.099H97.569Z" fill="#051F2D"/>
<path d="M98.2893 170.718C102.356 170.718 105.653 167.421 105.653 163.355C105.653 159.288 102.356 155.991 98.2893 155.991C94.2225 155.991 90.9258 159.288 90.9258 163.355C90.9258 167.421 94.2225 170.718 98.2893 170.718Z" fill="#051F2D"/>
<path d="M93.5106 168.077H67.5053C65.7916 168.077 64.4023 169.466 64.4023 171.18V207.246C64.4023 208.96 65.7916 210.349 67.5053 210.349H93.5106C95.2243 210.349 96.6135 208.96 96.6135 207.246V171.18C96.6135 169.466 95.2243 168.077 93.5106 168.077Z" fill="white"/>
<path d="M80.307 199.227C83.1883 199.227 85.5241 196.891 85.5241 194.01C85.5241 191.128 83.1883 188.792 80.307 188.792C77.4256 188.792 75.0898 191.128 75.0898 194.01C75.0898 196.891 77.4256 199.227 80.307 199.227Z" fill="#FF7C51"/>
<path d="M64.4134 183.065C64.2446 185.011 66.0251 185.405 69.0316 185.356C69.4175 185.348 69.7832 185.348 70.1289 185.344L69.9601 181.212C67.3636 181.301 64.5299 181.715 64.4134 183.065Z" fill="#FF7C51"/>
<path d="M70.0739 185.368C71.2171 185.368 72.1438 184.441 72.1438 183.298C72.1438 182.155 71.2171 181.228 70.0739 181.228C68.9307 181.228 68.0039 182.155 68.0039 183.298C68.0039 184.441 68.9307 185.368 70.0739 185.368Z" fill="#FF7C51"/>
<path d="M73.6559 187.341C74.7991 187.341 75.7259 186.414 75.7259 185.271C75.7259 184.128 74.7991 183.201 73.6559 183.201C72.5127 183.201 71.5859 184.128 71.5859 185.271C71.5859 186.414 72.5127 187.341 73.6559 187.341Z" fill="#FF7C51"/>
<path d="M70.9489 181.405L69.1562 185.131C71.2584 186.24 72.5365 187.02 72.5365 187.02L74.703 183.495C74.703 183.495 72.9586 182.386 70.9489 181.405Z" fill="#FF7C51"/>
<path d="M65.4174 184.203C65.4858 184.215 65.5541 184.223 65.6305 184.235C67.809 184.573 70.104 184.95 70.1924 185.043C70.301 185.159 72.0534 184.259 73.2552 183.624C73.9184 183.274 74.7343 183.411 75.2448 183.966L81.4627 189.01L78.9265 199.103C78.9265 199.103 69.5011 198.668 68.0461 198.198C64.075 196.912 63.9785 195.473 64.1553 194.87C62.8812 194.738 61.6352 194.223 61.9688 192.716C62.0693 192.27 62.2783 191.952 62.5597 191.723C61.1529 191.55 59.939 190.959 60.3571 189.143C60.5219 188.427 61.0042 188.025 61.6473 187.832C60.7469 187.559 60.136 186.924 60.349 185.577C60.6625 183.628 63.4158 183.797 65.4215 184.203H65.4174Z" fill="#FF7C51"/>
<path d="M64.3633 183.957L70.1311 184.705" stroke="#051F2D" stroke-width="0.683292" stroke-linecap="round" stroke-linejoin="round"/>
<path d="M61.2461 187.675L65.9688 188.322" stroke="#051F2D" stroke-width="0.683292" stroke-linecap="round" stroke-linejoin="round"/>
<path d="M62.2305 191.678L65.2289 192.361" stroke="#051F2D" stroke-width="0.683292" stroke-linecap="round" stroke-linejoin="round"/>
<path d="M63.918 194.85L66.1809 195.368" stroke="#051F2D" stroke-width="0.683292" stroke-linecap="round" stroke-linejoin="round"/>
<path d="M83.1626 185.006L77.5234 199.098C83.9464 210.553 105.382 217.828 104.437 217.491L113.223 196.168L83.1626 185.006Z" fill="#051F2D"/>
<path d="M108.832 218.359C115.201 218.359 120.364 213.196 120.364 206.827C120.364 200.459 115.201 195.296 108.832 195.296C102.464 195.296 97.3008 200.459 97.3008 206.827C97.3008 213.196 102.464 218.359 108.832 218.359Z" fill="#051F2D"/>
<path d="M96.5391 189.97L109.682 194.85" stroke="#CDD2D5" stroke-width="0.683292" stroke-linecap="round" stroke-linejoin="round"/>
<path d="M80.6897 139.303H68.8125V154.371H80.6897V139.303Z" fill="#FF7C51"/>
<path d="M73.9805 142.651C73.9805 142.651 76.6935 148.933 80.6928 151.015V139.303H74.0689L73.9805 142.651Z" fill="#051F2D"/>
<path d="M74.7531 160.311C78.034 160.311 80.6937 157.652 80.6937 154.371C80.6937 151.09 78.034 148.43 74.7531 148.43C71.4722 148.43 68.8125 151.09 68.8125 154.371C68.8125 157.652 71.4722 160.311 74.7531 160.311Z" fill="#FF7C51"/>
<path d="M65.4405 130.034C65.4405 130.066 65.4405 130.098 65.4405 130.13C65.4847 130.781 65.5732 131.424 65.7098 132.059C66.3489 135.114 67.9888 137.887 70.3884 139.941C73.8651 142.924 78.5838 146.63 80.899 146.991C86.6467 147.888 89.0221 145.235 90.7947 141.73C91.7915 139.765 92.3502 136.686 92.6637 134.001C92.9129 131.911 93.0093 130.058 93.0455 129.137C93.0616 128.747 93.0656 128.526 93.0656 128.526C93.0656 128.526 93.0375 126.746 92.6918 125.017C92.6918 124.997 92.6838 124.973 92.6798 124.953C92.5712 124.407 92.4306 123.868 92.2497 123.394C92.2175 123.313 92.1894 123.237 92.1572 123.165C91.2971 121.191 88.5197 114.816 79.6369 114.664C79.4922 114.664 79.3475 114.664 79.2028 114.664C70.6335 114.664 66.996 119.093 65.8023 123.096C65.6375 123.659 65.5209 124.31 65.4486 125.021C65.2878 126.549 65.324 128.337 65.4365 130.034H65.4405Z" fill="#FF7C51"/>
<path d="M84.0703 133.45C84.0703 133.45 83.6322 130.11 80.8146 128.928C77.997 127.747 75.4648 129.728 75.4648 129.728C75.4648 129.728 75.6939 133 78.813 134.202C81.932 135.403 84.0703 133.45 84.0703 133.45Z" fill="white"/>
<path d="M79.7685 134.467C81.3579 134.467 82.6464 133.179 82.6464 131.589C82.6464 130 81.3579 128.711 79.7685 128.711C78.1791 128.711 76.8906 130 76.8906 131.589C76.8906 133.179 78.1791 134.467 79.7685 134.467Z" fill="#051F2D"/>
<path d="M88.1212 133.539C88.1212 133.539 89.7892 135.347 92.225 134.234C92.3817 134.166 92.5264 134.085 92.6591 134.001C92.9083 131.911 93.0047 130.058 93.0409 129.137C92.3536 128.948 91.5256 128.932 90.6614 129.358C88.4628 130.452 88.1172 133.535 88.1172 133.535L88.1212 133.539Z" fill="white"/>
<path d="M92.8529 132.051C92.9502 130.587 92.1456 129.341 91.0558 129.269C89.966 129.197 89.0038 130.325 88.9065 131.789C88.8093 133.253 89.6139 134.499 90.7036 134.571C91.7934 134.643 92.7557 133.515 92.8529 132.051Z" fill="#051F2D"/>
<path d="M87.3241 131.127C87.3241 131.127 88.4656 133.732 88.2686 135.247C88.0717 136.762 86.2188 137.277 86.2188 137.277" stroke="#051F2D" stroke-width="0.683292" stroke-linecap="round" stroke-linejoin="round"/>
<path d="M85.5155 135.741L84.6875 136.569" stroke="#051F2D" stroke-width="0.683292" stroke-linecap="round" stroke-linejoin="round"/>
<path d="M83.8165 140.074C83.8165 140.074 81.5295 139.443 80.8984 137.907" stroke="#051F2D" stroke-width="0.683292" stroke-linecap="round" stroke-linejoin="round"/>
<path d="M92.6861 126.521C92.6861 126.521 90.998 125.291 88.293 127.421" stroke="#051F2D" stroke-width="0.683292" stroke-linecap="round" stroke-linejoin="round"/>
<path d="M75.457 126.991C75.457 126.991 76.8317 125.873 78.2585 125.688C81.0359 125.327 83.8133 127.425 83.8133 127.425" stroke="#051F2D" stroke-width="0.683292" stroke-linecap="round" stroke-linejoin="round"/>
<path d="M65.4357 130.033C65.4357 130.066 65.4357 130.098 65.4357 130.13C65.4799 130.781 65.5683 131.424 65.705 132.059L71.3562 132.594C71.3562 132.594 73.0926 122.819 75.456 122.216C78.1047 121.541 84.6804 123.86 89.0535 123.522C90.6653 123.394 91.6621 123.377 92.2529 123.394C92.2207 123.313 92.1926 123.237 92.1604 123.164C91.3003 121.191 88.5229 114.816 79.6401 114.663C70.7614 114.511 67.0234 119.024 65.8015 123.092C65.2749 124.857 65.2709 127.546 65.4357 130.029V130.033Z" fill="#051F2D"/>
<path d="M67.4898 140.854C70.5865 140.854 73.0968 138.343 73.0968 135.247C73.0968 132.15 70.5865 129.64 67.4898 129.64C64.3932 129.64 61.8828 132.15 61.8828 135.247C61.8828 138.343 64.3932 140.854 67.4898 140.854Z" fill="#FF7C51"/>
<path d="M64.8906 132.594L69.0266 136.734" stroke="#051F2D" stroke-width="0.683292" stroke-linecap="round" stroke-linejoin="round"/>
<path d="M68.4453 140.769C68.5136 141.509 69.1688 142.051 69.9084 141.983C70.6479 141.915 71.1905 141.26 71.1222 140.52C71.0539 139.78 70.3987 139.238 69.6592 139.306" stroke="#051F2D" stroke-width="0.683292" stroke-linecap="round" stroke-linejoin="round"/>
<path d="M67.4883 140.854C69.0759 140.854 70.5108 140.195 71.5318 139.133C71.7649 138.892 71.9779 138.627 72.1628 138.346" stroke="#051F2D" stroke-width="0.683292" stroke-linecap="round" stroke-linejoin="round"/>
<path d="M65.4492 124.339H92.6965C92.588 123.772 92.4433 123.209 92.2544 122.715C92.2222 122.635 92.1941 122.558 92.1619 122.486C91.3018 120.512 88.5244 114.138 79.6416 113.985C79.4969 113.985 79.3522 113.985 79.2075 113.985C70.6382 113.985 67.0007 118.414 65.8069 122.418C65.6422 122.98 65.5256 123.631 65.4532 124.343L65.4492 124.339Z" fill="#C7A77B"/>
<path d="M65.6213 125.323H92.9127C93.7052 125.323 94.3477 124.68 94.3477 123.888V122.356C94.3477 121.564 93.7052 120.922 92.9127 120.922H65.6213C64.8288 120.922 64.1863 121.564 64.1863 122.356V123.888C64.1863 124.68 64.8288 125.323 65.6213 125.323Z" fill="#C7A77B"/>
<path d="M91.42 120.926H66.3633" stroke="#051F2D" stroke-width="0.683292" stroke-linecap="round" stroke-linejoin="round"/>
</svg>
